<svg viewBox="0 0 164 186" xmlns="http://www.w3.org/2000/svg" xml:space="preserve" style="fill-rule:evenodd;clip-rule:evenodd;stroke-linecap:round;stroke-linejoin:round;stroke-miterlimit:10"><path d="M56.537 61.797c-2.434 2.099-4.762 4.592-6.855 7.625-8.754 12.682-6.069 22.636-2.879 28.271.902 1.591 3.277 1.402 3.841-.339 1.293-3.984 5.506-10.146 17.475-18.504.074-.053.147-.103.221-.156L56.537 61.797Z" style="fill:#cac6c0;fill-rule:nonzero"/><path d="M53.35 51.156c-2.809 1.56-5.596 3.527-8.264 6.071-11.15 10.636-10.547 20.927-8.568 27.092.559 1.744 2.922 2.041 3.828.451 2.076-3.636 7.457-8.813 20.875-14.561.082-.036.162-.072.246-.108L53.35 51.156ZM110.305 55.498c2.432 2.099 4.762 4.592 6.855 7.625 8.752 12.682 6.069 22.636 2.877 28.27-.902 1.592-3.275 1.403-3.839-.338-1.293-3.984-5.508-10.146-17.475-18.504-.074-.053-.147-.103-.221-.156l11.803-16.897ZM89.049 42.827c.328-3.195 1.039-6.532 2.328-9.985 5.385-14.439 15.082-17.938 21.527-18.549 1.823-.173 3.028 1.884 1.922 3.344-2.523 3.34-5.164 10.323-5.164 24.92 0 .092 0 .178-.002.27H89.049Z" style="fill:#cac6c0;fill-rule:nonzero"/><path d="M113.492 42.999c2.809 1.561 5.596 3.527 8.264 6.072 11.148 10.635 10.547 20.928 8.57 27.093-.561 1.743-2.924 2.04-3.832.45-2.076-3.636-7.455-8.813-20.873-14.562-.084-.036-.162-.071-.246-.108l8.117-18.945Z" style="fill:#cac6c0;fill-rule:nonzero"/><path d="M96.074 120.089V99.14c-4.248.754-9.043 1.065-14.488.799h-.059c-5.418.264-10.191-.041-14.424-.787v20.937h28.971Z" style="fill:#e9b283;fill-rule:nonzero"/><path style="fill:#4b2639" d="M81.422 61.466h.332v.665h-.332z"/><path d="M85.045 105.028h-6.912c-13.176 0-24.264-9.862-25.799-22.946l-2.92-24.864c-1.812-15.44 13.26-25.998 28.807-25.998h6.736c15.547 0 30.619 10.558 28.807 25.998l-2.92 24.864c-1.537 13.084-12.625 22.946-25.799 22.946" style="fill:#f8bc88;fill-rule:nonzero"/><path d="M52.018 60.886c.008-.07.016-.164.023-.227-.257-.021-.507-.075-.771-.075-5.115 0-9.264 3.945-9.264 8.812 0 4.865 4.149 8.81 9.264 8.81.519 0 1.014-.095 1.508-.179-1.035-4.348-1.323-8.369-1.324-11.414-.053-3.469.335-5.688.339-5.721.077 0 .149-.004.225-.006M121.172 69.396c0-4.866-4.148-8.811-9.266-8.811-.261 0-.511.053-.767.074.008.063.013.157.021.227.076.002.149.006.225.006.002.033.391 2.253.34 5.72-.002 3.047-.287 7.067-1.324 11.416.496.084.986.179 1.505.179 5.118 0 9.266-3.946 9.266-8.811" style="fill:#f8bc88;fill-rule:nonzero"/><path d="M64.445 72.304c0 1.9 1.525 3.439 3.406 3.439 1.879 0 3.405-1.539 3.405-3.439 0-1.9-1.526-3.439-3.405-3.439-1.881 0-3.406 1.539-3.406 3.439M91.924 72.304c0 1.9 1.521 3.439 3.402 3.439 1.881 0 3.407-1.539 3.407-3.439 0-1.9-1.526-3.439-3.407-3.439s-3.402 1.539-3.402 3.439" style="fill:#4b2639;fill-rule:nonzero"/><path d="M75.17 81.779c-.898.01-1.623.754-1.613 1.659.045 4.455 3.685 8.043 8.113 7.998 4.43-.046 7.996-3.707 7.949-8.161-.008-.906-.746-1.636-1.644-1.626-.901.009-1.625.753-1.616 1.659.028 2.643-2.091 4.815-4.722 4.842-2.629.027-4.791-2.101-4.819-4.744-.009-.906-.75-1.636-1.648-1.627" style="fill:#f49e92;fill-rule:nonzero"/><path d="M96.074 120.089v-9.937c-4.248.359-9.043.506-14.488.379h-.059c-5.418.126-10.191-.018-14.424-.372v9.93h28.971Z" style="fill:#4b2639;fill-rule:nonzero"/><path d="M163.176 185.881c-1.008-8.815-6.057-21.5-15.801-37.634-17.806-29.494-44.209-30.486-44.209-30.486H60.012s-26.4.992-44.207 30.486C6.061 164.381 1.01 177.066 0 185.881h24.229l16.967-25.2-2.03 25.2h84.848l-2.029-25.2 16.966 25.2h24.225Z" style="fill:#4b2639;fill-rule:nonzero"/><path d="M113.891 159.56H93.967c-1.709 0-3.094-1.386-3.094-3.095v-12.321c0-1.709 1.385-3.094 3.094-3.094h19.924c1.709 0 3.094 1.385 3.094 3.094v12.321c0 1.709-1.385 3.095-3.094 3.095" style="fill:#f58141;fill-rule:nonzero"/><path style="fill:#ded9d2" d="M90.873 144.357h26.111v11.897H90.873z"/><text x="93.629" y="153.013" style="font-family:'Arial-BoldMT','Arial',sans-serif;font-weight:700;font-size:7.969px;fill:#045156">A<tspan x="98.946px 104.262px 109.579px" y="153.013px 153.013px 153.013px">NDY</tspan></text><path d="M68.01 79.538c-3.996 0-7.236-3.238-7.236-7.234 0-3.995 3.24-7.236 7.236-7.236 3.994 0 7.234 3.241 7.234 7.236 0 3.996-3.24 7.234-7.234 7.234m0-16.804c-5.285 0-9.57 4.284-9.57 9.57 0 5.285 4.285 9.568 9.57 9.568 5.283 0 9.568-4.283 9.568-9.568 0-5.286-4.285-9.57-9.568-9.57M95.168 79.538c-3.996 0-7.234-3.238-7.234-7.234 0-3.995 3.238-7.236 7.234-7.236s7.234 3.241 7.234 7.236c0 3.996-3.238 7.234-7.234 7.234m0-16.804c-5.285 0-9.568 4.284-9.568 9.57 0 5.285 4.283 9.568 9.568 9.568 5.285 0 9.568-4.283 9.568-9.568 0-5.286-4.283-9.57-9.568-9.57" style="fill:#4b2639;fill-rule:nonzero"/><path style="fill:#4b2639" d="M51.864 66.043h9.104v2.679h-9.104zM102.21 66.043h9.105v2.679h-9.105zM76.327 70.239h10.52v2.678h-10.52z"/><path d="M94.922 40.386s-3.365 20.193-30.289 20.193H40.02c-1.377 0-2.539-1.056-2.633-2.429-.363-5.332 15.947-18.596 33.129-25.004 22.062-8.226 24.406 7.24 24.406 7.24" style="fill:#ded9d2;fill-rule:nonzero"/><path d="M105.578 24.289c-18.324-8.892-43.088-2.95-43.088-2.95s.33.627.9 1.567c-3.82.302-7.843 1.12-12.013 2.675-15.86 5.913-19.701 16.564-20.373 23.643-.19 2.003 2.068 3.324 3.674 2.113 3.668-2.774 11.337-5.673 27.371-5.673 21.761 0 30.035-2.265 33.013-3.588.87 3.218 5.891 19.651 17.912 19.651h1.393c2.799 0 5.186-2.013 5.649-4.771 1.376-8.18 1.849-24.764-14.438-32.667" style="fill:#ded9d2;fill-rule:nonzero"/><path d="M105.578 24.289c-18.324-8.892-43.088-2.95-43.088-2.95s.33.627.9 1.567c-3.82.302-7.843 1.12-12.013 2.675-15.86 5.913-21.387 17.449-22.059 24.528-.187 2.002 2.071 3.326 3.674 2.113 3.668-2.774 13.023-6.558 29.057-6.558 21.761 0 30.035-2.265 33.013-3.588.87 3.218 5.891 19.651 17.912 19.651h1.393c2.799 0 5.186-2.013 5.649-4.771 1.376-8.18 1.849-24.764-14.438-32.667" style="fill:#ded9d2;fill-rule:nonzero"/><path d="M106.248 12.577c-18.543-8.428-36.393-6.056-48.041-2.95-11.65 3.106-31.486 11.39-31.486 27.882 0 2.017 2.078 3.316 3.689 2.101 3.676-2.769 11.348-5.658 27.354-5.658 30.736 0 34.578-4.52 34.578-4.52s5.394 5.085 20.607 5.085c1.826 0 3.762 3.24 5.096 6.049.519 1.095 2.158.794 2.234-.416.459-7.26-.533-21.438-14.031-27.573" style="fill:#ded9d2;fill-rule:nonzero"/><path d="M89.049 28.544c.328-3.195 1.039-6.532 2.328-9.985C96.762 4.12 106.459.622 112.904.01c1.823-.173 3.028 1.884 1.922 3.344-2.523 3.34-5.164 10.324-5.164 24.921 0 .092 0 .178-.002.269H89.049Z" style="fill:#ded9d2;fill-rule:nonzero"/><path d="M93.84 25.131c1.83-2.64 4.063-5.218 6.857-7.621 11.688-10.045 21.87-8.427 27.809-5.85 1.68.728 1.74 3.11.068 3.856-3.824 1.706-9.505 6.548-16.552 19.331-.045.08-.086.156-.131.235L93.84 25.131Z" style="fill:#ded9d2;fill-rule:nonzero"/><path d="M99.612 24.75c2.963-1.242 6.23-2.216 9.881-2.74 15.254-2.19 22.969 4.648 26.594 10.013 1.023 1.517-.204 3.559-2.016 3.289-4.143-.616-11.535.412-24.35 7.404l-.236.127-9.873-18.093Z" style="fill:#ded9d2;fill-rule:nonzero"/><path d="M107.963 27.371c3.146.641 6.398 1.676 9.709 3.296 13.842 6.775 16.369 16.77 16.346 23.244-.006 1.831-2.17 2.827-3.518 1.585-3.074-2.84-9.766-6.153-24.293-7.585-.092-.009-.178-.018-.265-.027l2.021-20.513Z" style="fill:#ded9d2;fill-rule:nonzero"/><path d="m59.309 83.289 9.141 5.142v8.57M103.869 83.289l-9.141 5.142v8.57" style="fill:none;fill-rule:nonzero;stroke:#e9b283;stroke-width:2px"/><path d="M60.875 39.796c-3.191.354-6.523 1.092-9.967 2.406-14.394 5.5-17.816 15.226-18.377 21.676-.156 1.824 1.908 3.011 3.362 1.897 3.32-2.553 10.281-5.249 24.878-5.364.09-.002.176-.004.268-.004l-.164-20.611Z" style="fill:#ded9d2;fill-rule:nonzero"/></svg>