<svg viewBox="0 0 164 177" xmlns="http://www.w3.org/2000/svg" xml:space="preserve" style="fill-rule:evenodd;clip-rule:evenodd;stroke-linejoin:round;stroke-miterlimit:2"><path d="M79.902 44.757c.576-.143 1.135-.325 1.686-.526.551.201 1.11.383 1.686.526-.623.698-1.184 1.453-1.686 2.247-.502-.794-1.063-1.549-1.686-2.247m60.09 22.435h-.002c2.662-2.984 4.293-6.906 4.293-11.217 0-7.912-5.451-14.533-12.797-16.359 2.661-2.983 4.291-6.905 4.291-11.217 0-9.32-7.554-16.875-16.873-16.875h-4.584C110.199 4.631 102.688 0 94.072 0c-4.589 0-8.86 1.332-12.484 3.6C77.964 1.332 73.694 0 69.104 0c-8.615 0-16.128 4.631-20.248 11.524h-4.584c-9.32 0-16.874 7.555-16.874 16.875 0 4.312 1.63 8.234 4.292 11.217-7.346 1.826-12.798 8.447-12.798 16.359 0 4.311 1.631 8.233 4.292 11.217.001 0 .001 0 0 0-7.904 1.964-13.615 9.479-12.702 18.18.907 8.654 8.531 15.052 17.231 15.052h107.75c8.7 0 16.323-6.398 17.231-15.052.914-8.701-4.797-16.216-12.702-18.18" style="fill:#4b2639;fill-rule:nonzero"/><path d="M163.176 176.29c-1.009-8.815-6.057-21.5-15.801-37.634-17.806-29.494-44.208-30.486-44.208-30.486H60.011s-26.399.992-44.208 30.486C6.06 154.79 1.01 167.475 0 176.29h24.228l16.966-25.2-2.028 25.2h84.847l-2.028-25.2 16.966 25.2h24.225Z" style="fill:#f7a8b0;fill-rule:nonzero"/><path d="M96.072 110.498V89.549c-4.248.754-9.041 1.065-14.487.799h-.058c-5.417.264-10.193-.041-14.425-.787v20.937h28.97Z" style="fill:#e9b283;fill-rule:nonzero"/><path d="m81.588 116.531-20.927-8.361h41.854l-20.927 8.361Z" style="fill:#ded9d2;fill-rule:nonzero"/><path d="m67.414 104.385 12.091 8.56c2.222 1.573 3.16 4.079 2.406 6.434-1.345 4.197-4.415 10.143-11.027 10.143-7.55 0-14.522-11.467-17.649-17.455-1.033-1.978-.071-4.282 2.205-5.287l6.537-2.889c1.764-.779 3.914-.584 5.437.494" style="fill:#d6939b;fill-rule:nonzero"/><path d="m95.762 104.385-12.09 8.56c-2.223 1.573-3.161 4.079-2.407 6.434 1.346 4.197 4.415 10.143 11.027 10.143 7.55 0 14.523-11.467 17.65-17.455 1.033-1.978.07-4.282-2.205-5.287l-6.537-2.889c-1.764-.779-3.915-.584-5.438.494" style="fill:#d6939b;fill-rule:nonzero"/><path style="fill:#4b2639" d="M81.422 51.875h.333v.665h-.333z"/><path d="M85.044 95.437h-6.912c-13.174 0-24.262-9.862-25.799-22.946l-2.919-24.864C47.6 32.187 62.672 21.629 78.219 21.629h6.738c15.546 0 30.619 10.558 28.805 25.998l-2.919 24.864c-1.537 13.084-12.625 22.946-25.799 22.946" style="fill:#f8bc88;fill-rule:nonzero"/><path d="M52.016 51.295c.007-.07.017-.164.024-.227-.258-.021-.508-.075-.771-.075-5.116 0-9.264 3.945-9.264 8.812 0 4.865 4.148 8.81 9.264 8.81.52 0 1.013-.095 1.508-.179-1.036-4.348-1.323-8.369-1.325-11.414-.052-3.469.337-5.688.34-5.721.077 0 .147-.004.224-.006M121.17 59.805c0-4.866-4.146-8.811-9.264-8.811-.261 0-.511.053-.769.074.008.063.015.157.023.227.076.002.147.006.224.006.003.033.391 2.253.339 5.72-.001 3.047-.287 7.067-1.324 11.416.496.084.988.179 1.507.179 5.118 0 9.264-3.946 9.264-8.811" style="fill:#f8bc88;fill-rule:nonzero"/><path d="M64.444 63.296c0 1.899 1.526 3.44 3.407 3.44 1.88 0 3.405-1.541 3.405-3.44 0-1.9-1.525-3.439-3.405-3.439-1.881 0-3.407 1.539-3.407 3.439M91.922 63.296c0 1.899 1.524 3.44 3.403 3.44 1.882 0 3.407-1.541 3.407-3.44 0-1.9-1.525-3.439-3.407-3.439-1.879 0-3.403 1.539-3.403 3.439" style="fill:#4b2639;fill-rule:nonzero"/><path d="M75.187 70.694c-.899 0-1.631.737-1.631 1.643 0 4.455 3.603 8.079 8.031 8.079 4.431 0 8.035-3.624 8.035-8.079 0-.906-.732-1.643-1.631-1.643-.901 0-1.632.737-1.632 1.643 0 2.643-2.14 4.794-4.772 4.794-2.629 0-4.769-2.151-4.769-4.794 0-.906-.732-1.643-1.631-1.643" style="fill:#f49e92;fill-rule:nonzero"/><path d="M86.908 142.656c0 2.938-2.382 5.319-5.32 5.319-2.939 0-5.321-2.381-5.321-5.319s2.382-5.32 5.321-5.32c2.938 0 5.32 2.382 5.32 5.32M86.908 164.574c0 2.938-2.382 5.32-5.32 5.32-2.939 0-5.321-2.382-5.321-5.32s2.382-5.321 5.321-5.321c2.938 0 5.32 2.383 5.32 5.321" style="fill:#d6939b;fill-rule:nonzero"/><path d="M92.493 35.595c9.388 4.259 19.51 2.99 25.081-2.515l-39.71-18.013c-.473 7.817 5.242 16.27 14.629 20.528M77.872 15.05l39.71 18.014c.473-7.818-5.242-16.27-14.628-20.529-9.388-4.257-19.511-2.99-25.082 2.515" style="fill:#4b2639;fill-rule:nonzero"/><path d="M71.53 35.595c-9.387 4.259-19.511 2.99-25.082-2.515l39.71-18.013c.473 7.817-5.241 16.27-14.628 20.528M86.151 15.05l-39.71 18.014c-.473-7.818 5.242-16.27 14.628-20.529 9.388-4.257 19.511-2.99 25.082 2.515" style="fill:#4b2639;fill-rule:nonzero"/><path d="M113.927 149.969H94.004c-1.708 0-3.094-1.386-3.094-3.095v-12.321c0-1.709 1.386-3.094 3.094-3.094h19.923c1.708 0 3.095 1.385 3.095 3.094v12.321c0 1.709-1.387 3.095-3.095 3.095" style="fill:#f58141;fill-rule:nonzero"/><path style="fill:#ded9d2" d="M90.911 134.766h26.109v11.897H90.911z"/><text x="91.911" y="142.816" style="font-family:'Arial-BoldMT','Arial',sans-serif;font-weight:700;font-size:5.811px;fill:#045156">B<tspan x="95.294px 98.677px 102.06px 105.443px 108.826px 112.209px" y="142.816px 142.816px 142.816px 142.816px 142.816px 142.816px">ARBARA</tspan></text></svg>