<svg viewBox="0 0 157 193" xmlns="http://www.w3.org/2000/svg" xml:space="preserve" style="fill-rule:evenodd;clip-rule:evenodd;stroke-linejoin:round;stroke-miterlimit:2"><path d="M78.093 129.216c-9.533 0-17.667-6.101-20.708-14.598-2.91 1.382-6.114 2.114-9.429 2.114-5.873 0-11.394-2.289-15.546-6.44-4.152-4.152-6.441-9.675-6.441-15.548 0-3.316.73-6.52 2.112-9.429-8.497-3.042-14.594-11.176-14.594-20.708 0-9.534 6.103-17.67 14.606-20.709-3.865-8.163-2.426-18.231 4.317-24.974 4.152-4.149 9.673-6.438 15.546-6.438 3.315 0 6.519.73 9.429 2.112C60.426 6.1 68.56 0 78.093 0c9.533 0 17.667 6.1 20.708 14.598 2.911-1.382 6.114-2.112 9.429-2.112 5.872 0 11.394 2.289 15.546 6.438 4.152 4.151 6.438 9.672 6.438 15.545 0 3.318-.73 6.522-2.112 9.433 8.5 3.042 14.597 11.174 14.597 20.705 0 9.532-6.097 17.666-14.597 20.708 1.385 2.909 2.112 6.113 2.112 9.429 0 5.875-2.286 11.396-6.441 15.548-4.149 4.151-9.671 6.44-15.543 6.44-3.315 0-6.518-.732-9.429-2.114-3.041 8.497-11.175 14.598-20.708 14.598" style="fill:#4b2639;fill-rule:nonzero"/><path d="M92.578 126.782v-20.949c-4.248.754-9.042 1.065-14.488.799h-.058c-5.417.264-10.193-.041-14.424-.787v20.937h28.97Z" style="fill:#e9b283;fill-rule:nonzero"/><path style="fill:#4b2639" d="M77.927 68.159h.333v.665h-.333z"/><path d="M81.55 111.721h-6.913c-13.173 0-24.261-9.862-25.798-22.946L45.92 63.912c-1.814-15.441 13.257-25.999 28.804-25.999h6.738c15.547 0 30.619 10.558 28.805 25.999l-2.918 24.863c-1.537 13.084-12.625 22.946-25.799 22.946" style="fill:#f8bc88;fill-rule:nonzero"/><path d="M48.522 67.579c.007-.07.017-.164.024-.227-.258-.021-.508-.075-.771-.075-5.116 0-9.264 3.945-9.264 8.811s4.148 8.811 9.264 8.811c.52 0 1.013-.095 1.508-.179-1.036-4.349-1.323-8.369-1.325-11.414-.052-3.469.337-5.688.34-5.721.077-.001.147-.004.224-.006M117.675 76.089c0-4.866-4.146-8.811-9.263-8.811-.262 0-.512.054-.77.074.009.063.015.157.023.228.076.002.147.005.225.006.002.033.391 2.252.338 5.719 0 3.047-.286 7.067-1.324 11.416.497.084.988.179 1.508.179 5.117 0 9.263-3.945 9.263-8.811" style="fill:#f8bc88;fill-rule:nonzero"/><path d="M60.95 79.58c0 1.9 1.526 3.44 3.407 3.44 1.88 0 3.405-1.54 3.405-3.44s-1.525-3.439-3.405-3.439c-1.881 0-3.407 1.539-3.407 3.439M88.427 79.58c0 1.9 1.524 3.44 3.404 3.44 1.883 0 3.407-1.54 3.407-3.44s-1.524-3.439-3.407-3.439c-1.88 0-3.404 1.539-3.404 3.439" style="fill:#4b2639;fill-rule:nonzero"/><path d="M71.692 86.979c-.899 0-1.631.737-1.631 1.643 0 4.455 3.604 8.079 8.032 8.079 4.43 0 8.034-3.624 8.034-8.079 0-.906-.732-1.643-1.629-1.643-.901 0-1.633.737-1.633 1.643 0 2.643-2.14 4.794-4.772 4.794-2.63 0-4.77-2.151-4.77-4.794 0-.906-.732-1.643-1.631-1.643" style="fill:#ef4966;fill-rule:nonzero"/><path d="M78.005 74.055c-.361 0-.727-.101-1.053-.312-5.126-3.33-12.013-3.33-17.141 0-.896.583-2.097.327-2.68-.57-.582-.897-.327-2.097.57-2.68 3.193-2.073 6.886-3.168 10.68-3.168 3.794 0 7.488 1.095 10.681 3.168.897.583 1.151 1.783.57 2.68-.372.571-.993.882-1.627.882" style="fill:#4b2639;fill-rule:nonzero"/><path d="M97.429 74.055c-.361 0-.727-.101-1.053-.312-5.127-3.33-12.013-3.33-17.14 0-.898.583-2.097.327-2.681-.57-.582-.897-.327-2.097.571-2.68 3.192-2.073 6.886-3.168 10.679-3.168 3.794 0 7.488 1.095 10.681 3.168.897.583 1.152 1.783.57 2.68-.372.571-.993.882-1.627.882" style="fill:#4b2639;fill-rule:nonzero"/><path d="M49.909 110.948H36.893l6.508-16.339 6.508 16.339Z" style="fill:#ef4966;fill-rule:nonzero"/><path d="M49.909 99.374H36.893l6.508-16.34 6.508 16.34Z" style="fill:#f7a8b0;fill-rule:nonzero"/><path d="M49.481 83.083c0 3.357-2.722 6.08-6.08 6.08-3.357 0-6.079-2.723-6.079-6.08 0-3.358 2.722-6.08 6.079-6.08 3.358 0 6.08 2.722 6.08 6.08" style="fill:#4fb9b2;fill-rule:nonzero"/><path d="M119.293 110.948h-13.017l6.509-16.339 6.508 16.339Z" style="fill:#ef4966;fill-rule:nonzero"/><path d="M119.293 99.374h-13.017l6.509-16.34 6.508 16.34Z" style="fill:#f7a8b0;fill-rule:nonzero"/><path d="M118.864 83.083c0 3.357-2.722 6.08-6.08 6.08-3.357 0-6.078-2.723-6.078-6.08 0-3.358 2.721-6.08 6.078-6.08 3.358 0 6.08 2.722 6.08 6.08" style="fill:#4fb9b2;fill-rule:nonzero"/><path d="M15.803 154.941C6.06 171.074 1.011 183.759 0 192.575h20.353l15.639-28.894-12.245-19.569c-2.752 3.1-5.435 6.673-7.944 10.829M140.384 154.941c9.743 16.133 14.792 28.818 15.803 37.634h-20.354l-15.638-28.894 12.246-19.569c2.752 3.1 5.433 6.673 7.943 10.829" style="fill:#f8bc88;fill-rule:nonzero"/><path d="M136.029 143.464c-6.155-6.934-12.664-11.449-18.471-14.4-.318-.151-.633-.299-.947-.445-1.643-.758-3.416-1.22-5.225-1.223h-.027c-15.83 0-29.086 10.631-33.266 25.115-4.18-14.484-17.435-25.115-33.265-25.115h-.027c-1.809.003-3.582.465-5.224 1.223-.314.146-.631.294-.947.445-5.807 2.951-12.315 7.466-18.472 14.4l17.681 23.573 5.693 25.537h69.122l5.694-25.537 17.681-23.573Z" style="fill:#ef4966;fill-rule:nonzero"/><path d="M78.093 152.512c4.18-14.484 17.435-25.115 33.265-25.115h.026c-9.135-3.214-18.525-4.234-18.525-4.234H62.618s-7.57 1.517-15.611 4.325c14.855.927 27.1 11.211 31.086 25.024" style="fill:#e9b283;fill-rule:nonzero"/><path d="M83.73 57.871c9.243 9.242 21.824 12.254 30.895 8.206l-39.101-39.1c-4.048 9.069-1.037 21.651 8.206 30.894M75.541 26.96l39.101 39.1c4.046-9.069 1.035-21.652-8.207-30.894-9.243-9.243-21.827-12.255-30.894-8.206" style="fill:#4b2639;fill-rule:nonzero"/><path d="M72.457 57.871c-9.243 9.242-21.825 12.254-30.894 8.206l39.1-39.1c4.048 9.069 1.036 21.651-8.206 30.894M80.646 26.96l-39.1 39.1c-4.048-9.069-1.036-21.652 8.206-30.894 9.243-9.243 21.825-12.255 30.894-8.206" style="fill:#4b2639;fill-rule:nonzero"/><path d="M81.317 33.907c-.526-3.927-3.223-6.412-3.223-6.412s-2.697 2.485-3.223 6.412c-.894 6.662 7.34 6.662 6.446 0" style="fill:#f7a8b0;fill-rule:nonzero"/><path d="M74.87 22.699c.526 3.927 3.223 6.412 3.223 6.412s2.696-2.485 3.222-6.412c.895-6.661-7.339-6.661-6.445 0" style="fill:#f7a8b0;fill-rule:nonzero"/><path d="M74.877 33.911c3.127-2.434 3.915-6.015 3.915-6.015s-3.505-1.077-7.163.446c-6.204 2.584-2.056 9.696 3.248 5.569" style="fill:#f7a8b0;fill-rule:nonzero"/><path d="M81.31 22.696c-3.126 2.433-3.915 6.014-3.915 6.014s3.505 1.078 7.163-.445c6.205-2.584 2.057-9.696-3.248-5.569" style="fill:#f7a8b0;fill-rule:nonzero"/><path d="M81.31 33.911c-3.126-2.434-3.915-6.015-3.915-6.015s3.505-1.077 7.163.446c6.205 2.584 2.057 9.696-3.248 5.569" style="fill:#f7a8b0;fill-rule:nonzero"/><path d="M74.877 22.696c3.127 2.433 3.915 6.014 3.915 6.014s-3.505 1.078-7.163-.445c-6.204-2.584-2.056-9.696 3.248-5.569" style="fill:#f7a8b0;fill-rule:nonzero"/><path d="M78.093 31.659c1.854 0 3.355-1.502 3.355-3.355 0-1.854-1.501-3.356-3.355-3.356s-3.356 1.502-3.356 3.356c0 1.853 1.502 3.355 3.356 3.355M121.687 56.007c-2.224-3.28-5.746-4.301-5.746-4.301s-1.305 3.426-.025 7.176c2.171 6.36 9.541 2.688 5.771-2.875" style="fill:#ef4966;fill-rule:nonzero"/><path d="M110.918 48.85c2.224 3.28 5.744 4.301 5.744 4.301s1.306-3.426.027-7.176c-2.172-6.361-9.542-2.689-5.771 2.875" style="fill:#ef4966;fill-rule:nonzero"/><path d="M115.923 58.881c1.715-3.572.822-7.129.822-7.129s-3.617.598-6.212 3.593c-4.401 5.08 2.484 9.596 5.39 3.536" style="fill:#ef4966;fill-rule:nonzero"/><path d="M116.681 45.975c-1.713 3.572-.822 7.129-.822 7.129s3.617-.598 6.213-3.593c4.4-5.08-2.485-9.596-5.391-3.536" style="fill:#ef4966;fill-rule:nonzero"/><path d="M121.682 56.012c-3.884-.783-6.187-3.637-6.187-3.637s2.657-2.528 6.61-2.796c6.706-.454 6.165 7.762-.423 6.433" style="fill:#ef4966;fill-rule:nonzero"/><path d="M110.922 48.844c3.884.783 6.187 3.637 6.187 3.637s-2.657 2.528-6.61 2.796c-6.706.454-6.165-7.762.423-6.433" style="fill:#ef4966;fill-rule:nonzero"/><path d="M117.798 55.432c1.66-.827 2.334-2.841 1.508-4.5-.826-1.659-2.842-2.333-4.5-1.507-1.659.826-2.334 2.841-1.508 4.5.828 1.659 2.842 2.334 4.5 1.507" style="fill:#4fb9b2;fill-rule:nonzero"/><path d="M34.501 56.007c2.223-3.28 5.744-4.301 5.744-4.301s1.306 3.426.026 7.176c-2.171 6.36-9.541 2.688-5.77-2.875" style="fill:#ef4966;fill-rule:nonzero"/><path d="M45.269 48.85c-2.223 3.28-5.745 4.301-5.745 4.301s-1.305-3.426-.025-7.176c2.171-6.361 9.541-2.689 5.77 2.875" style="fill:#ef4966;fill-rule:nonzero"/><path d="M40.263 58.881c-1.714-3.572-.822-7.129-.822-7.129s3.617.598 6.212 3.593c4.401 5.08-2.483 9.596-5.39 3.536" style="fill:#ef4966;fill-rule:nonzero"/><path d="M39.506 45.975c1.714 3.572.822 7.129.822 7.129s-3.618-.598-6.212-3.593c-4.401-5.08 2.483-9.596 5.39-3.536" style="fill:#ef4966;fill-rule:nonzero"/><path d="M34.505 56.012c3.884-.783 6.187-3.637 6.187-3.637s-2.657-2.528-6.61-2.796c-6.706-.454-6.165 7.762.423 6.433" style="fill:#ef4966;fill-rule:nonzero"/><path d="M45.264 48.844c-3.884.783-6.186 3.637-6.186 3.637s2.656 2.528 6.61 2.796c6.705.454 6.165-7.762-.424-6.433" style="fill:#ef4966;fill-rule:nonzero"/><path d="M38.388 55.432c-1.659-.827-2.333-2.841-1.507-4.5.827-1.659 2.841-2.333 4.5-1.507 1.659.826 2.334 2.841 1.507 4.5-.826 1.659-2.841 2.334-4.5 1.507" style="fill:#4fb9b2;fill-rule:nonzero"/><path d="M104.255 40.292c-2.98-2.61-6.646-2.706-6.646-2.706s-.396 3.645 1.792 6.949c3.711 5.603 9.911.185 4.854-4.243" style="fill:#48a9a3;fill-rule:nonzero"/><path d="M92.026 36.096c2.981 2.61 6.646 2.706 6.646 2.706s.396-3.645-1.792-6.949c-3.71-5.603-9.91-.185-4.854 4.243" style="fill:#48a9a3;fill-rule:nonzero"/><path d="M99.408 44.533c.753-3.89-1.01-7.105-1.01-7.105s-3.348 1.495-5.1 5.049c-2.971 6.029 4.834 8.655 6.11 2.056" style="fill:#48a9a3;fill-rule:nonzero"/><path d="M96.872 31.855c-.753 3.89 1.01 7.105 1.01 7.105s3.347-1.495 5.099-5.049c2.972-6.029-4.832-8.655-6.109-2.056" style="fill:#48a9a3;fill-rule:nonzero"/><path d="M104.253 40.299c-3.957.226-6.906-1.952-6.906-1.952s1.929-3.118 5.686-4.378c6.372-2.138 7.929 5.947 1.22 6.33" style="fill:#48a9a3;fill-rule:nonzero"/><path d="M92.029 36.089c3.955-.226 6.906 1.952 6.906 1.952s-1.93 3.118-5.686 4.378c-6.372 2.138-7.931-5.947-1.22-6.33" style="fill:#48a9a3;fill-rule:nonzero"/><path d="M100.349 40.721c1.396-1.22 1.538-3.339.318-4.735-1.218-1.395-3.339-1.538-4.735-.318-1.396 1.22-1.538 3.339-.317 4.735 1.218 1.395 3.338 1.538 4.734.318" style="fill:#f7a8b0;fill-rule:nonzero"/><path d="M51.932 40.292c2.981-2.61 6.646-2.706 6.646-2.706s.396 3.645-1.792 6.949c-3.711 5.603-9.911.185-4.854-4.243" style="fill:#48a9a3;fill-rule:nonzero"/><path d="M64.161 36.096c-2.981 2.61-6.646 2.706-6.646 2.706s-.396-3.645 1.792-6.949c3.711-5.603 9.911-.185 4.854 4.243" style="fill:#48a9a3;fill-rule:nonzero"/><path d="M56.778 44.533c-.753-3.89 1.011-7.105 1.011-7.105s3.348 1.495 5.099 5.049c2.972 6.029-4.832 8.655-6.11 2.056" style="fill:#48a9a3;fill-rule:nonzero"/><path d="M59.314 31.855c.753 3.89-1.01 7.105-1.01 7.105s-3.348-1.495-5.1-5.049c-2.971-6.029 4.833-8.655 6.11-2.056" style="fill:#48a9a3;fill-rule:nonzero"/><path d="M51.934 40.299c3.956.226 6.905-1.952 6.905-1.952s-1.929-3.118-5.686-4.378c-6.372-2.138-7.929 5.947-1.219 6.33" style="fill:#48a9a3;fill-rule:nonzero"/><path d="M64.158 36.089c-3.956-.226-6.906 1.952-6.906 1.952s1.93 3.118 5.687 4.378c6.372 2.138 7.929-5.947 1.219-6.33" style="fill:#48a9a3;fill-rule:nonzero"/><path d="M55.838 40.721c-1.396-1.22-1.538-3.339-.318-4.735 1.219-1.395 3.339-1.538 4.735-.318 1.395 1.22 1.538 3.339.318 4.735-1.22 1.395-3.339 1.538-4.735.318" style="fill:#f7a8b0;fill-rule:nonzero"/><path d="m40.242 177.821 3.29 14.753h69.122l3.29-14.753H40.242Z" style="fill:#48a9a3;fill-rule:nonzero"/><path d="M109.418 166.253H89.495c-1.708 0-3.094-1.386-3.094-3.095v-12.321c0-1.709 1.386-3.094 3.094-3.094h19.923c1.708 0 3.094 1.385 3.094 3.094v12.321c0 1.709-1.386 3.095-3.094 3.095" style="fill:#f58141;fill-rule:nonzero"/><path style="fill:#ded9d2" d="M86.402 151.051h26.11v11.897h-26.11z"/><text x="88.615" y="159.706" style="font-family:'Arial-BoldMT','Arial',sans-serif;font-weight:700;font-size:7.969px;fill:#045156">F<tspan x="92.965px 98.202px 99.898px 105.135px" y="159.706px 159.706px 159.706px 159.706px">RIDA</tspan></text></svg>