<svg viewBox="0 0 1600 1771" xmlns="http://www.w3.org/2000/svg" xml:space="preserve" style="fill-rule:evenodd;clip-rule:evenodd;stroke-linecap:round;stroke-linejoin:round;stroke-miterlimit:10">
  <circle cx="799.458" cy="114.525" r="113.708" style="fill:#d5cfc8"/>
  <ellipse cx="799.45" cy="534.962" rx="347.692" ry="420.438" style="fill:#d9dadb"/>
  <path d="M1111.31 539.488c7.404-46.696 9.504-93.438-12.791-137.734-38.346-128.967-157.65-223.083-299.063-223.083-141.958 0-261.567 94.854-299.437 224.579-21.092 43.075-19.35 89.667-11.759 137.388-23.225 5.433-43.1 14.899-57.637 33.07-14.892 18.621-21.667 40-18.409 63.634 6.2 45.108 38.534 70.912 95.95 76.954 1.405 10.508 2.963 21.262 4.246 32.046 10.509 89.65 55.167 156.408 133.929 200.45 4.321 2.404 8.134 5.704 12.175 8.604 16.434 4.846 32.625 10.837 49.334 14.216 17.841 3.592 36.175 6.371 54.321 6.588 35.475.417 71.091.187 106.429-2.563 18.733-1.45 37.021-8.733 55.475-13.454 5.633-1.45 11.187-3.179 16.787-4.783 4.384-3.067 8.55-6.538 13.213-9.129 68.141-37.979 111.396-94.759 128.175-171.013 4.425-20.1 6.341-40.758 9.383-61.004 56.892-5.987 89.004-31.929 95.675-76.892 6.3-42.345-16.267-71.708-75.996-97.875Zm-291.212 286.95c-6.638 1.909-13.825 1.867-20.771 2.734-26.475.587-49.304-12.125-63.7-32.825 20.617 4.283 41.942 6.575 63.825 6.575 22.158 0 43.733-2.375 64.583-6.771-9.821 14.254-24.183 24.6-43.937 30.287Z" style="fill:#f6c289;fill-rule:nonzero"/>
  <path d="M658.512 955.396c16.434 4.846 32.625 10.837 49.334 14.216 17.841 3.592 36.175 6.371 54.321 6.588 35.475.417 71.091.188 106.429-2.563 18.733-1.45 37.021-8.733 55.475-13.454 5.633-1.45 11.187-3.179 16.787-4.783.217 18.892.371 37.779.742 56.671.079 4.566.833 9.133 1.267 13.7-.2 11.546-.417 23.121-.613 34.675-19.354 13.612-1.808 63.3-21.175 76.929-9.133 25.708-22.267 59.629-40.412 98.454-35.742 76.446-57.067 122.063-80.571 120.613-15.554-.959-24.046-22.071-66.463-123.455-19.55-46.695-35.166-83.841-43.996-104.829-19.354-13.608-13.162-54.083-32.516-67.696-.217-11.57-.434-23.15-.634-34.691.446-18.471.867-36.925 1.359-55.4.125-4.984.433-9.967.666-14.975Z" style="fill:#ebba84;fill-rule:nonzero"/>
  <path style="fill:#d9dadb" d="M516.592 1293.85h552.404v474.371H516.592z"/>
  <path d="M799.325 829.171c-41.821.925-74.688-31.154-79.254-75.854-.954-9.392 6.454-18.217 15.2-19.017 10.6-.967 15.816 3.646 17.487 15.483 4.321 30.542 21.063 46.117 49.179 45.755 23.842-.313 40.355-16.746 44.58-44.375 2.087-13.555 7.425-18.405 18.566-16.813 9.955 1.421 15.325 11.379 13.488 23.371-5.388 35.021-23.933 58.779-58.471 68.717-6.642 1.908-13.829 1.866-20.775 2.733Z" style="fill:#f1a694;fill-rule:nonzero"/>
  <path d="M933.95 694.838c-19.692-.163-33.363-14.346-33.146-34.396.183-18.767 14.75-33.434 33.333-33.584 18.642-.137 34.059 15.375 34.117 34.338.063 19.15-14.892 33.796-34.304 33.642Z" style="fill:#532b3a;fill-rule:nonzero"/>
  <path d="M698.571 661.196c0 19.821-14.013 33.725-33.904 33.642-18.792-.084-33.346-14.492-33.546-33.226-.2-18.929 15.092-34.691 33.721-34.754 19.162-.058 33.729 14.775 33.729 34.338Z" style="fill:#532b3a;fill-rule:nonzero"/>
  <path d="M1111.66 380.667c-14.676-115.4-166.059-169.063-232.738-214.43H719.993c-106.184 9.692-208.159 116.338-220.642 214.43-8.962 70.566-52.633 126.012-111.633 145.558 33.962 19.775 75.137 22.05 110.566 6.108 35.417-15.946 64.55-49.866 78.209-91.083 7.946-23.979 10.771-49.767 16.187-74.679 5.417-24.913 14.071-50.084 30.771-66.909 10.879-10.974 27.054-10.533 61.079-7.679 77.609 6.5 80.959 20.859 122.946 20.621 41.588-.241 44.425-14.383 119.008-20.621 34.634-2.9 50.509-2.983 61.096 7.679 16.696 16.83 25.338 41.996 30.754 66.909 5.417 24.912 8.255 50.7 16.205 74.679 13.654 41.221 42.791 75.138 78.208 91.083 35.433 15.942 76.604 13.667 110.571-6.108-59.009-19.546-102.679-74.992-111.659-145.558Z" style="fill:#d9dadb;fill-rule:nonzero"/>
  <path d="M572.821 589.587c15.804-14.22 51.062-24.137 92.033-24.137 40.954 0 76.217 9.917 92.017 24.137" style="fill:none;fill-rule:nonzero;stroke:#532b3a;stroke-width:26.86px"/>
  <path d="M856.125 589.587c15.804-14.22 51.079-24.137 92.037-24.137 40.955 0 76.234 9.917 92.034 24.137" style="fill:none;fill-rule:nonzero;stroke:#532b3a;stroke-width:26.86px"/>
  <path d="m540.521 1192.58 116.291-180.487 412.18 758.737H840.604l-300.083-578.25Z" style="fill:#c6c7c8;fill-rule:nonzero"/>
  <path d="m1068.99 1192.58-116.309-180.487-412.162 758.737H768.91l300.08-578.25Z" style="fill:#eceded;fill-rule:nonzero"/>
  <path d="M1591.31 1722.86c-13.904-58.616-36.191-114.079-62.575-168.125-38.725-79.32-79.646-157.233-134.008-227.4-76.808-99.22-173.5-170.812-294.237-208.575-5.846-1.895-38.392-30.187-54.98-36.358-14.862-5.525-29.554-12.008-43.779-19.275-9.633-5.046-19.275-8.054-28.921-8.379v713.462h242.725c-6.329-79.795-12.787-159.287-19.12-238.608.941-.321 1.895-.629 2.841-.8 2.375 3.337 4.909 6.483 7.113 9.975 49.612 73.471 99.083 146.779 148.221 220.417 5.062 7.441 10.279 10.283 19.12 10.129 70.95-.313 141.909-.154 212.85-.154 3.796 0 7.592-.321 13.442-.646-3.017-15.958-5.221-30.954-8.692-45.663ZM554.86 1081.94c-16.754 6.329-116.633 57.991-153.454 77.266-56.879 30.029-107.125 69.054-151.691 115.35-44.088 45.838-80.121 97.979-111.725 153.284-47.405 82.958-91.955 167.358-120.088 259.312-7.271 23.7-12.008 48.35-17.854 72.696v9.321c75.212 0 150.596-.159 225.808.154 8.213 0 13.579-2.067 18.334-9.321 47.866-71.587 96.079-143.017 144.27-214.592 3.625-5.52 7.421-10.908 11.217-16.433.942.154 2.054.308 3.163.479-6.33 79.321-12.484 158.634-18.967 238.759h247.292v-713.771c-11.221-.154-22.438 2.841-33.659 8.687-13.741 7.117-28.112 13.438-42.646 18.809Z" style="fill:#2f2a4e;fill-rule:nonzero"/>
  <path d="M1196.98 1359.25v121.042c0 16.575-13.429 30.02-30.016 30.02H971.018c-16.588 0-30.034-13.45-30.034-30.02V1359.25c0-16.604 13.446-30.029 30.034-30.029h195.946c16.587 0 30.016 13.425 30.016 30.029Z" style="fill:#ee8138;fill-rule:nonzero"/>
  <path style="fill:#e6e0d6" d="M940.987 1362.72h255.996v115.504H940.987z"/>
  <path d="M1000.98 1395.76v1.05c0 9.163-5.616 17.684-16.587 17.684-9.967 0-16.8-7.842-16.8-17.1 0-9.755 7.175-17.317 16.8-17.317 7.887 0 13.3 3.95 15.496 9.787h-6.08c-1.575-2.995-4.891-4.941-9.258-4.941-6.608 0-11.221 5.096-11.221 12.317 0 7.587 4.892 12.408 11.5 12.408 5.555 0 9.6-4.013 10.167-9.138h-12.208v-4.75h18.191Z" style="fill:#004f54;fill-rule:nonzero"/>
  <path d="M1024.61 1386.04h-13.104v8.301h12.621v4.783h-12.621v9.412h13.629v4.938h-19.245v-32.379h18.72v4.945Z" style="fill:#004f54;fill-rule:nonzero"/>
  <path d="M1046.83 1380.05c10.65 0 17.1 8.208 17.1 17.225 0 9.471-7.362 17.25-17.146 17.25-11.883 0-17.187-9.196-17.187-17.25-.004-9.263 7.221-17.225 17.233-17.225Zm-.091 29.446c6.508 0 11.445-5.217 11.445-12.221 0-6.825-4.566-12.192-11.404-12.192-6.466 0-11.446 5.179-11.446 12.192 0 7.004 4.938 12.221 11.405 12.221Z" style="fill:#004f54;fill-rule:nonzero"/>
  <path d="M1093.5 1413.47h-6.746l-9.212-13.054h-3.088v13.054h-5.617v-32.379h9.8c8.688 0 11.775 4.758 11.775 9.725 0 4.6-3.179 7.933-6.991 8.891l10.079 13.763Zm-14.492-27.684h-4.554v10.213h4.6c3.558 0 5.554-2.129 5.554-5.029 0-3.271-1.991-5.184-5.6-5.184Z" style="fill:#004f54;fill-rule:nonzero"/>
  <path d="M1127.6 1395.76v1.05c0 9.163-5.621 17.684-16.587 17.684-9.971 0-16.805-7.842-16.805-17.1 0-9.755 7.175-17.317 16.805-17.317 7.887 0 13.3 3.95 15.495 9.787h-6.083c-1.575-2.995-4.891-4.941-9.258-4.941-6.604 0-11.217 5.096-11.217 12.317 0 7.587 4.892 12.408 11.496 12.408 5.554 0 9.6-4.013 10.171-9.138h-12.213v-4.75h18.196Z" style="fill:#004f54;fill-rule:nonzero"/>
  <path style="fill:#004f54;fill-rule:nonzero" d="M1132.51 1381.09h5.617v32.379h-5.617z"/>
  <path d="M1154.35 1381.09h5.121l12.3 32.379h-5.834l-2.9-7.929h-12.916l-2.95 7.929h-5.692l12.871-32.379Zm-2.763 20.187h9.984l-2.996-8.329c-.663-1.796-1.342-3.892-1.809-5.592h-.25c-.52 1.763-1.233 3.892-1.895 5.65l-3.034 8.271Z" style="fill:#004f54;fill-rule:nonzero"/>
  <path d="M985.983 1424.28c10.65 0 17.1 8.238 17.1 17.246 0 9.45-7.366 17.258-17.146 17.258-11.883 0-17.191-9.225-17.191-17.258.004-9.254 7.225-17.246 17.237-17.246Zm-.091 29.438c6.512 0 11.454-5.213 11.454-12.196 0-6.85-4.571-12.217-11.404-12.217-6.467 0-11.45 5.179-11.45 12.217 0 6.983 4.933 12.196 11.4 12.196Z" style="fill:#004f54;fill-rule:nonzero"/>
  <path d="M1007.67 1423.53h6.171v2.842c0 3.646-1.05 6.546-2.517 8.887h-3.088c1.096-1.666 1.667-3.762 1.809-5.862h-2.375v-5.867Z" style="fill:#004f54;fill-rule:nonzero"/>
  <path d="M1028.36 1443.1c-.762.742-1.854 1.946-2.566 2.658v11.971h-5.6v-32.404h5.6v13.583l12.921-13.583h7.179l-13.642 13.979 15.2 18.425h-7.162l-11.93-14.629Z" style="fill:#004f54;fill-rule:nonzero"/>
  <path d="M1068.67 1430.26h-13.104v8.329h12.621v4.783h-12.621v9.417h13.625v4.937h-19.242v-32.404h18.721v4.938Z" style="fill:#004f54;fill-rule:nonzero"/>
  <path d="M1094.02 1430.26h-13.1v8.329h12.621v4.783h-12.621v9.417h13.625v4.937h-19.242v-32.404h18.717v4.938Z" style="fill:#004f54;fill-rule:nonzero"/>
  <path d="M1119.39 1430.26h-13.055v9.041h12.58v4.721h-12.58v13.704h-5.662v-32.404h18.717v4.938Z" style="fill:#004f54;fill-rule:nonzero"/>
  <path d="M1143.46 1430.26h-13.055v9.041h12.575v4.721h-12.575v13.704h-5.662v-32.404h18.717v4.938Z" style="fill:#004f54;fill-rule:nonzero"/>
  <path d="M1167.55 1430.26h-13.104v8.329h12.625v4.783h-12.625v9.417h13.629v4.937h-19.241v-32.404h18.716v4.938Z" style="fill:#004f54;fill-rule:nonzero"/>
</svg>
