<svg viewBox="0 0 684 730" xmlns="http://www.w3.org/2000/svg" xml:space="preserve" style="fill-rule:evenodd;clip-rule:evenodd;stroke-linecap:round;stroke-linejoin:round;stroke-miterlimit:10">
  <circle cx="341.434" cy="46.843" r="46.843" style="fill:#d5cfc8"/>
  <ellipse cx="341.431" cy="220.044" rx="143.233" ry="173.201" style="fill:#d9dadb"/>
  <path d="M469.902 221.908c3.05-19.237 3.915-38.492-5.269-56.74-15.797-53.128-64.945-91.9-123.201-91.9-58.48 0-107.753 39.075-123.354 92.516-8.689 17.745-7.972 36.939-4.844 56.598-9.568 2.238-17.755 6.138-23.744 13.623-6.135 7.671-8.926 16.479-7.584 26.214 2.554 18.583 15.874 29.213 39.527 31.702.579 4.329 1.221 8.759 1.749 13.202 4.329 36.931 22.727 64.433 55.173 82.576 1.78.99 3.351 2.35 5.016 3.544 6.77 1.997 13.44 4.465 20.323 5.857 7.35 1.48 14.902 2.624 22.378 2.714 14.614.171 29.286.077 43.844-1.056 7.717-.597 15.251-3.598 22.853-5.542 2.32-.598 4.609-1.31 6.915-1.971 1.806-1.263 3.523-2.693 5.443-3.761 28.072-15.645 45.89-39.036 52.803-70.449 1.823-8.28 2.612-16.791 3.865-25.131 23.437-2.467 36.666-13.153 39.414-31.676 2.595-17.445-6.701-29.541-31.307-40.32Zm-119.966 118.21c-2.735.787-5.695.769-8.557 1.126-10.906.242-20.311-4.995-26.241-13.522 8.493 1.765 17.278 2.709 26.293 2.709 9.128 0 18.016-.979 26.605-2.79-4.046 5.872-9.962 10.134-18.1 12.477Z" style="fill:#f6c289;fill-rule:nonzero"/>
  <path d="M283.371 393.243c6.77 1.997 13.44 4.465 20.323 5.857 7.35 1.48 14.902 2.624 22.378 2.714 14.614.171 29.286.077 43.844-1.056 7.717-.597 15.251-3.598 22.853-5.542 2.32-.598 4.609-1.31 6.915-1.971.09 7.783.153 15.563.306 23.346.033 1.881.343 3.762.522 5.644-.083 4.756-.172 9.524-.253 14.284-7.973 5.608-.744 26.077-8.723 31.692-3.762 10.59-9.173 24.564-16.648 40.558-14.724 31.492-23.509 50.284-33.191 49.687-6.408-.395-9.906-9.092-27.38-50.857-6.029-14.401-12.07-28.796-18.124-43.185-7.973-5.606-5.422-22.28-13.396-27.888-.089-4.767-.178-9.537-.26-14.291.183-7.609.357-15.212.559-22.823.052-2.053.179-4.105.275-6.169Z" style="fill:#ebba84;fill-rule:nonzero"/>
  <path style="fill:#d9dadb;fill-rule:nonzero" d="M224.906 532.669h227.565v195.419H224.906z"/>
  <path d="M341.379 341.244c-17.228.381-30.768-12.834-32.649-31.248-.393-3.869 2.659-7.505 6.262-7.834 4.366-.398 6.515 1.502 7.204 6.378 1.78 12.582 8.677 18.998 20.259 18.849 9.822-.129 16.624-6.899 18.365-18.281.86-5.583 3.059-7.581 7.649-6.926 4.1.586 6.313 4.688 5.556 9.628-2.22 14.427-9.86 24.215-24.087 28.308-2.737.787-5.697.769-8.559 1.126Z" style="fill:#f1a694;fill-rule:nonzero"/>
  <path d="M396.839 285.905c-8.113-.067-13.744-5.91-13.655-14.169.076-7.731 6.076-13.773 13.732-13.835 7.679-.057 14.03 6.334 14.054 14.145.026 7.889-6.134 13.923-14.131 13.859Z" style="fill:#532b3a;fill-rule:nonzero"/>
  <path d="M299.873 272.046c0 8.166-5.773 13.893-13.967 13.859-7.741-.034-13.737-5.97-13.819-13.687-.083-7.798 6.217-14.291 13.891-14.317 7.894-.024 13.895 6.086 13.895 14.145Z" style="fill:#532b3a;fill-rule:nonzero"/>
  <path d="M470.048 156.481c-6.045-47.54-68.408-69.646-95.877-88.335h-65.472c-43.743 3.992-85.752 47.926-90.894 88.335-3.692 29.07-21.683 51.911-45.988 59.963 13.991 8.147 30.953 9.084 45.548 2.517 14.59-6.569 26.592-20.543 32.219-37.522 3.273-9.879 4.437-20.502 6.668-30.765 2.232-10.263 5.797-20.632 12.676-27.563 4.482-4.521 11.145-4.339 25.162-3.164 31.971 2.678 33.351 8.593 50.648 8.495 17.132-.099 18.301-5.925 49.026-8.495 14.268-1.194 20.807-1.229 25.169 3.164 6.878 6.933 10.438 17.3 12.669 27.563 2.232 10.263 3.401 20.886 6.676 30.765 5.625 16.981 17.628 30.953 32.218 37.522 14.597 6.567 31.558 5.63 45.55-2.517-24.309-8.052-42.299-30.893-45.998-59.963Z" style="fill:#d9dadb;fill-rule:nonzero"/>
  <path d="M248.07 242.547c6.51-5.858 21.035-9.944 37.913-9.944 16.872 0 31.398 4.086 37.907 9.944" style="fill:none;fill-rule:nonzero;stroke:#532b3a;stroke-width:11.07px"/>
  <path d="M364.778 242.547c6.511-5.858 21.042-9.944 37.915-9.944 16.872 0 31.405 4.086 37.914 9.944" style="fill:none;fill-rule:nonzero;stroke:#532b3a;stroke-width:11.07px"/>
  <path d="m234.764 490.954 47.906-74.353 169.8 312.566h-94.086l-123.62-238.213Z" style="fill:#c6c7c8;fill-rule:nonzero"/>
  <path d="m452.47 490.954-47.914-74.353-169.792 312.566h94.087L452.47 490.954Z" style="fill:#eceded;fill-rule:nonzero"/>
  <path d="M667.64 709.403c-5.727-24.147-14.909-46.995-25.778-69.26-15.953-32.676-32.81-64.773-55.205-93.678-31.642-40.875-71.474-70.367-121.213-85.924-2.408-.781-15.815-12.436-22.648-14.978-6.123-2.276-12.175-4.947-18.035-7.94-3.969-2.079-7.941-3.318-11.915-3.452v293.914h99.992c-2.607-32.872-5.268-65.619-7.877-98.296.388-.132.781-.259 1.171-.329.978 1.375 2.022 2.671 2.93 4.109 20.438 30.267 40.818 60.467 61.06 90.802 2.086 3.065 4.235 4.236 7.877 4.173 29.228-.129 58.46-.064 87.685-.064 1.563 0 3.127-.132 5.537-.266-1.243-6.574-2.151-12.752-3.581-18.811Zm-426.97-264.03c-6.902 2.607-48.048 23.89-63.216 31.83-23.432 12.371-44.131 28.447-62.49 47.519-18.162 18.883-33.006 40.363-46.026 63.146-19.528 34.175-37.881 68.944-49.471 106.825-2.995 9.763-4.946 19.918-7.355 29.947v3.84c30.984 0 62.039-.065 93.023.064 3.383 0 5.594-.852 7.553-3.84 19.719-29.491 39.58-58.917 59.433-88.402 1.493-2.275 3.057-4.494 4.62-6.77.388.064.847.127 1.303.197-2.607 32.677-5.142 65.35-7.813 98.358h101.873V434.046c-4.623-.064-9.243 1.17-13.866 3.579-5.661 2.931-11.581 5.535-17.568 7.748Z" style="fill:#2f2a4e;fill-rule:nonzero"/>
  <path d="M505.196 559.611v49.864c0 6.828-5.532 12.367-12.365 12.367H412.11c-6.833 0-12.372-5.541-12.372-12.367v-49.864c0-6.84 5.539-12.37 12.372-12.37h80.721c6.833 0 12.365 5.53 12.365 12.37Z" style="fill:#ee8138;fill-rule:nonzero"/>
  <path style="fill:#e6e0d6;fill-rule:nonzero" d="M399.738 561.041h105.459v47.582H399.738z"/>
  <path d="M424.453 583.235v.433c0 3.774-2.314 7.284-6.833 7.284-4.106 0-6.921-3.23-6.921-7.044 0-4.018 2.956-7.134 6.921-7.134 3.249 0 5.479 1.628 6.384 4.032h-2.505c-.649-1.234-2.015-2.035-3.814-2.035-2.722 0-4.622 2.099-4.622 5.074 0 3.125 2.015 5.111 4.737 5.111 2.288 0 3.955-1.653 4.188-3.764h-5.029v-1.957h7.494Z" style="fill:#004f54;fill-rule:nonzero"/>
  <path d="M434.187 579.231h-5.398v3.419h5.199v1.97h-5.199v3.878h5.615v2.034h-7.929v-13.339h7.712v2.038Z" style="fill:#004f54;fill-rule:nonzero"/>
  <path d="M443.341 576.762c4.388 0 7.045 3.382 7.045 7.096 0 3.902-3.033 7.106-7.064 7.106-4.895 0-7.08-3.788-7.08-7.106-.002-3.815 2.975-7.096 7.099-7.096Zm-.037 12.131c2.681 0 4.715-2.149 4.715-5.035 0-2.811-1.881-5.022-4.698-5.022-2.664 0-4.715 2.133-4.715 5.022 0 2.886 2.034 5.035 4.698 5.035Z" style="fill:#004f54;fill-rule:nonzero"/>
  <path d="M462.566 590.532h-2.779l-3.795-5.378h-1.272v5.378h-2.314v-13.339h4.037c3.579 0 4.851 1.96 4.851 4.006 0 1.895-1.31 3.269-2.88 3.663l4.152 5.67Zm-5.97-11.404h-1.876v4.207h1.895c1.466 0 2.288-.877 2.288-2.072 0-1.348-.821-2.135-2.307-2.135Z" style="fill:#004f54;fill-rule:nonzero"/>
  <path d="M476.615 583.235v.433c0 3.774-2.315 7.284-6.833 7.284-4.108 0-6.923-3.23-6.923-7.044 0-4.018 2.956-7.134 6.923-7.134 3.249 0 5.479 1.628 6.384 4.032h-2.506c-.649-1.234-2.016-2.035-3.814-2.035-2.721 0-4.621 2.099-4.621 5.074 0 3.125 2.015 5.111 4.736 5.111 2.288 0 3.954-1.653 4.189-3.764h-5.031v-1.957h7.496Z" style="fill:#004f54;fill-rule:nonzero"/>
  <path style="fill:#004f54;fill-rule:nonzero" d="M478.636 577.193h2.314v13.339h-2.314z"/>
  <path d="M487.632 577.193h2.109l5.067 13.339h-2.403l-1.194-3.267h-5.322l-1.215 3.267h-2.345l5.303-13.339Zm-1.138 8.316h4.112l-1.234-3.431c-.273-.74-.553-1.603-.745-2.303h-.103c-.214.726-.508 1.603-.781 2.327l-1.249 3.407Z" style="fill:#004f54;fill-rule:nonzero"/>
</svg>