<?xml version="1.0" encoding="utf-8"?>
<!-- Generator: Adobe Illustrator 14.0.0, SVG Export Plug-In . SVG Version: 6.00 Build 43363)  -->
<!DOCTYPE svg PUBLIC "-//W3C//DTD SVG 1.1//EN" "http://www.w3.org/Graphics/SVG/1.1/DTD/svg11.dtd">
<svg version="1.1" id="Layer_1" xmlns="http://www.w3.org/2000/svg" xmlns:xlink="http://www.w3.org/1999/xlink" x="0px" y="0px"
	 width="595.28px" height="595.28px" viewBox="0 0 595.28 595.28" enable-background="new 0 0 595.28 595.28" xml:space="preserve">
<circle fill="#D5CFC8" cx="288.133" cy="121.677" r="27.29"/>
<ellipse fill="#D9DADB" cx="288.131" cy="222.582" rx="83.446" ry="100.905"/>
<path fill="#F6C289" d="M362.977,223.668c1.777-11.207,2.281-22.425-3.07-33.056c-9.203-30.952-37.836-53.54-71.775-53.54
	c-34.07,0-62.776,22.765-71.865,53.899c-5.062,10.338-4.644,21.52-2.822,32.973c-5.574,1.304-10.344,3.576-13.833,7.937
	c-3.574,4.469-5.2,9.6-4.418,15.272c1.488,10.826,9.248,17.019,23.028,18.469c0.337,2.522,0.711,5.103,1.019,7.691
	c2.522,21.516,13.24,37.538,32.143,48.108c1.037,0.577,1.952,1.369,2.922,2.065c3.944,1.163,7.83,2.601,11.84,3.412
	c4.282,0.862,8.682,1.529,13.037,1.581c8.514,0.1,17.062,0.045,25.543-0.615c4.496-0.348,8.885-2.096,13.314-3.229
	c1.352-0.348,2.685-0.763,4.029-1.148c1.052-0.736,2.052-1.569,3.171-2.191c16.354-9.115,26.735-22.742,30.762-41.043
	c1.062-4.824,1.522-9.782,2.252-14.641c13.654-1.437,21.361-7.663,22.962-18.454C382.728,236.995,377.312,229.948,362.977,223.668z
	 M293.086,292.536c-1.593,0.458-3.318,0.448-4.985,0.656c-6.354,0.141-11.833-2.91-15.288-7.878
	c4.948,1.028,10.066,1.578,15.318,1.578c5.318,0,10.496-0.57,15.5-1.625C301.274,288.688,297.827,291.171,293.086,292.536z"/>
<path fill="#EBBA84" d="M254.306,323.486c3.944,1.163,7.83,2.601,11.84,3.412c4.282,0.862,8.682,1.529,13.037,1.581
	c8.514,0.1,17.062,0.045,25.543-0.615c4.496-0.348,8.885-2.096,13.314-3.229c1.352-0.348,2.685-0.763,4.029-1.148
	c0.052,4.534,0.089,9.067,0.178,13.601c0.019,1.096,0.2,2.192,0.304,3.288c-0.048,2.771-0.1,5.549-0.147,8.322
	c-4.645,3.267-0.434,15.192-5.082,18.463c-2.192,6.17-5.344,14.311-9.699,23.629c-8.578,18.347-13.696,29.295-19.337,28.947
	c-3.733-0.23-5.771-5.297-15.951-29.629c-4.692-11.207-8.44-20.122-10.559-25.159c-4.645-3.266-3.159-12.98-7.804-16.247
	c-0.052-2.777-0.104-5.556-0.152-8.326c0.107-4.433,0.208-8.862,0.326-13.296C254.176,325.884,254.25,324.688,254.306,323.486z"/>
<rect x="220.245" y="404.714" fill="#D9DADB" width="132.577" height="113.849"/>
<path fill="#F1A694" d="M288.101,293.192c-10.037,0.222-17.925-7.477-19.021-18.205c-0.229-2.254,1.549-4.372,3.648-4.564
	c2.544-0.232,3.796,0.875,4.197,3.716c1.037,7.33,5.055,11.068,11.803,10.981c5.722-0.075,9.685-4.019,10.699-10.65
	c0.501-3.253,1.782-4.417,4.456-4.035c2.389,0.341,3.678,2.731,3.237,5.609c-1.293,8.405-5.744,14.107-14.033,16.492
	C291.493,292.994,289.768,292.984,288.101,293.192z"/>
<path fill="#532B3A" d="M320.411,260.952c-4.726-0.039-8.007-3.443-7.955-8.255c0.044-4.504,3.54-8.024,8-8.06
	c4.474-0.033,8.174,3.69,8.188,8.241C328.659,257.474,325.07,260.989,320.411,260.952z"/>
<path fill="#532B3A" d="M263.92,252.878c0,4.757-3.363,8.094-8.137,8.074c-4.51-0.02-8.003-3.478-8.051-7.974
	c-0.048-4.543,3.622-8.326,8.093-8.341C260.424,244.623,263.92,248.183,263.92,252.878z"/>
<path fill="#D9DADB" d="M363.062,185.551c-3.522-27.696-39.854-40.575-55.857-51.463h-38.143
	c-25.484,2.326-49.958,27.921-52.954,51.463c-2.151,16.936-12.632,30.243-26.792,34.934c8.151,4.746,18.033,5.292,26.536,1.466
	c8.5-3.827,15.492-11.968,18.77-21.86c1.907-5.755,2.585-11.944,3.885-17.923c1.3-5.979,3.377-12.02,7.385-16.058
	c2.611-2.634,6.493-2.528,14.659-1.843c18.626,1.56,19.43,5.006,29.507,4.949c9.981-0.058,10.662-3.452,28.562-4.949
	c8.312-0.696,12.122-0.716,14.663,1.843c4.007,4.039,6.081,10.079,7.381,16.058c1.3,5.979,1.981,12.168,3.889,17.923
	c3.277,9.893,10.27,18.033,18.77,21.86c8.504,3.826,18.385,3.28,26.537-1.466C375.698,215.794,365.217,202.487,363.062,185.551z"/>
<path fill="none" stroke="#532B3A" stroke-width="6.4472" stroke-linecap="round" stroke-linejoin="round" stroke-miterlimit="10" d="
	M233.74,235.692c3.793-3.413,12.255-5.793,22.088-5.793c9.829,0,18.292,2.38,22.084,5.793"/>
<path fill="none" stroke="#532B3A" stroke-width="6.4472" stroke-linecap="round" stroke-linejoin="round" stroke-miterlimit="10" d="
	M301.733,235.692c3.793-3.413,12.259-5.793,22.089-5.793c9.829,0,18.296,2.38,22.088,5.793"/>
<polygon fill="#C6C7C8" points="225.988,380.411 253.898,337.094 352.821,519.191 298.008,519.191 "/>
<polygon fill="#ECEDED" points="352.821,380.411 324.907,337.094 225.988,519.191 280.802,519.191 "/>
<path fill="#2F2A4E" d="M478.177,507.677c-3.337-14.068-8.686-27.379-15.018-40.35c-9.294-19.037-19.115-37.736-32.162-54.576
	c-18.434-23.813-41.64-40.995-70.617-50.058c-1.403-0.455-9.214-7.245-13.195-8.726c-3.567-1.326-7.093-2.882-10.507-4.626
	c-2.312-1.211-4.626-1.933-6.941-2.011v171.231h58.254c-1.519-19.151-3.069-38.229-4.589-57.266
	c0.226-0.077,0.455-0.151,0.682-0.192c0.57,0.801,1.178,1.556,1.707,2.394c11.907,17.633,23.78,35.227,35.573,52.9
	c1.215,1.786,2.467,2.468,4.589,2.431c17.028-0.075,34.058-0.037,51.084-0.037c0.911,0,1.822-0.077,3.226-0.155
	C479.539,514.806,479.01,511.207,478.177,507.677z M229.429,353.856c-4.021,1.519-27.992,13.918-36.829,18.544
	c-13.651,7.207-25.71,16.573-36.406,27.684c-10.581,11.001-19.229,23.515-26.814,36.788c-11.377,19.91-22.069,40.166-28.821,62.235
	c-1.745,5.688-2.882,11.604-4.285,17.447v2.237c18.051,0,36.143-0.038,54.194,0.037c1.971,0,3.259-0.496,4.4-2.237
	c11.488-17.181,23.059-34.324,34.625-51.502c0.87-1.325,1.781-2.618,2.692-3.944c0.226,0.037,0.493,0.074,0.759,0.115
	c-1.519,19.037-2.996,38.072-4.552,57.302h59.35V347.257c-2.693-0.037-5.385,0.682-8.078,2.085
	C236.366,351.05,232.917,352.567,229.429,353.856z"/>
<path fill="#EE8138" d="M383.539,420.41v29.05c0,3.978-3.223,7.205-7.204,7.205h-47.027c-3.981,0-7.208-3.228-7.208-7.205v-29.05
	c0-3.985,3.227-7.207,7.208-7.207h47.027C380.316,413.203,383.539,416.425,383.539,420.41z"/>
<rect x="322.1" y="421.243" fill="#E6E0D6" width="61.439" height="27.721"/>
<g>
	<g>
		<path fill="#004F54" d="M336.499,429.173v0.252c0,2.199-1.348,4.244-3.981,4.244c-2.392,0-4.032-1.882-4.032-4.104
			c0-2.341,1.722-4.156,4.032-4.156c1.893,0,3.192,0.948,3.719,2.349h-1.459c-0.378-0.719-1.174-1.186-2.222-1.186
			c-1.586,0-2.693,1.223-2.693,2.956c0,1.821,1.174,2.978,2.76,2.978c1.333,0,2.304-0.963,2.44-2.193h-2.93v-1.14H336.499z"/>
		<path fill="#004F54" d="M342.17,426.84h-3.145v1.992h3.029v1.148h-3.029v2.259h3.271v1.185h-4.619v-7.771h4.493V426.84z"/>
		<path fill="#004F54" d="M347.503,425.402c2.556,0,4.104,1.97,4.104,4.134c0,2.273-1.767,4.14-4.115,4.14
			c-2.852,0-4.125-2.207-4.125-4.14C343.366,427.313,345.1,425.402,347.503,425.402z M347.481,432.469
			c1.562,0,2.747-1.252,2.747-2.933c0-1.638-1.096-2.926-2.737-2.926c-1.552,0-2.747,1.243-2.747,2.926
			C344.744,431.217,345.929,432.469,347.481,432.469z"/>
		<path fill="#004F54" d="M358.703,433.424h-1.619l-2.211-3.133h-0.741v3.133h-1.348v-7.771h2.352c2.085,0,2.826,1.142,2.826,2.334
			c0,1.104-0.763,1.904-1.678,2.134L358.703,433.424z M355.225,426.78h-1.093v2.451h1.104c0.854,0,1.333-0.511,1.333-1.207
			C356.569,427.239,356.091,426.78,355.225,426.78z"/>
		<path fill="#004F54" d="M366.888,429.173v0.252c0,2.199-1.349,4.244-3.981,4.244c-2.393,0-4.033-1.882-4.033-4.104
			c0-2.341,1.722-4.156,4.033-4.156c1.893,0,3.192,0.948,3.719,2.349h-1.46c-0.378-0.719-1.174-1.186-2.222-1.186
			c-1.585,0-2.692,1.223-2.692,2.956c0,1.821,1.174,2.978,2.759,2.978c1.333,0,2.304-0.963,2.441-2.193h-2.931v-1.14H366.888z"/>
		<path fill="#004F54" d="M368.065,425.653h1.348v7.771h-1.348V425.653z"/>
		<path fill="#004F54" d="M373.306,425.653h1.229l2.952,7.771h-1.4l-0.696-1.903h-3.1l-0.708,1.903h-1.366L373.306,425.653z
			 M372.643,430.498h2.396l-0.719-1.999c-0.159-0.431-0.322-0.934-0.434-1.342h-0.06c-0.125,0.423-0.296,0.934-0.455,1.356
			L372.643,430.498z"/>
		<path fill="#004F54" d="M332.899,436.018c2.556,0,4.104,1.977,4.104,4.139c0,2.268-1.768,4.142-4.115,4.142
			c-2.852,0-4.126-2.214-4.126-4.142C328.763,437.936,330.496,436.018,332.899,436.018z M332.877,443.083
			c1.563,0,2.749-1.251,2.749-2.927c0-1.644-1.097-2.932-2.737-2.932c-1.552,0-2.748,1.243-2.748,2.932
			C330.141,441.832,331.325,443.083,332.877,443.083z"/>
		<path fill="#004F54" d="M338.104,435.839h1.481v0.682c0,0.875-0.252,1.571-0.604,2.133h-0.741c0.263-0.4,0.4-0.903,0.434-1.407
			h-0.57V435.839z"/>
		<path fill="#004F54" d="M343.07,440.535c-0.183,0.178-0.445,0.467-0.616,0.638v2.873h-1.344v-7.777h1.344v3.26l3.101-3.26h1.723
			l-3.274,3.355l3.648,4.422h-1.719L343.07,440.535z"/>
		<path fill="#004F54" d="M352.744,437.454H349.6v1.999h3.029v1.148H349.6v2.26h3.27v1.185h-4.618v-7.777h4.493V437.454z"/>
		<path fill="#004F54" d="M358.828,437.454h-3.144v1.999h3.029v1.148h-3.029v2.26h3.27v1.185h-4.618v-7.777h4.492V437.454z"/>
		<path fill="#004F54" d="M364.917,437.454h-3.133v2.17h3.019v1.133h-3.019v3.289h-1.359v-7.777h4.492V437.454z"/>
		<path fill="#004F54" d="M370.694,437.454h-3.133v2.17h3.018v1.133h-3.018v3.289h-1.359v-7.777h4.492V437.454z"/>
		<path fill="#004F54" d="M376.476,437.454h-3.145v1.999h3.03v1.148h-3.03v2.26h3.271v1.185h-4.618v-7.777h4.492V437.454z"/>
	</g>
</g>
</svg>
