<svg viewBox="0 0 164 175" xmlns="http://www.w3.org/2000/svg" xml:space="preserve" style="fill-rule:evenodd;clip-rule:evenodd;stroke-linejoin:round;stroke-miterlimit:2"><path d="M111.908 49.309c-.264 0-.514.055-.771.074.007.063.015.157.023.229.076.002.146.004.225.006.002.033.39 2.252.337 5.718 0 1.198-.046-1.459-.164 0H51.619c-.117-1.459-.166 1.198-.166.001-.053-3.467.338-5.686.34-5.719.076-.002.146-.006.222-.006.008-.072.018-.164.026-.228-.258-.02-.508-.075-.772-.075-5.117 0-9.263 3.944-9.263 8.811 0 4.846 4.115 8.775 9.201 8.808v.003h60.092l.005-.046c.2.024.399.046.604.046 5.115 0 9.264-3.944 9.264-8.811 0-4.866-4.149-8.811-9.264-8.811" style="fill:#f8bc88;fill-rule:nonzero"/><path d="M163.176 174.575c-1.01-8.815-6.057-21.5-15.801-37.634-17.806-29.494-44.209-30.486-44.209-30.486H60.012s-26.4.992-44.207 30.486C6.061 153.075 1.012 165.76 0 174.575h24.229l16.967-25.2-2.03 25.2h84.848l-2.029-25.2 16.966 25.2h24.225Z" style="fill:#96a0d0;fill-rule:nonzero"/><path d="M96.072 108.783V87.834c-4.246.754-9.041 1.065-14.486.799h-.059c-5.418.264-10.191-.041-14.424-.787v20.937h28.969Z" style="fill:#e9b283;fill-rule:nonzero"/><path d="m81.59 149.967-20.93-43.512h41.856L81.59 149.967Z" style="fill:#f5ece4;fill-rule:nonzero"/><path style="fill:#4b2639" d="M81.422 50.161h.332v.665h-.332z"/><path d="M53.615 72.841c3.559 12.262 13.266 20.881 24.518 20.881h6.912c11.252 0 20.959-8.619 24.515-20.881H53.615Z" style="fill:#f58141;fill-rule:nonzero"/><path d="M85.045 93.722h-6.912c-13.176 0-19.098-9.862-20.635-22.946L54.58 45.912c-1.812-15.44 8.094-20.832 23.641-20.832h6.736c15.547 0 25.453 5.392 23.641 20.832l-2.92 24.864c-1.537 13.084-7.459 22.946-20.633 22.946" style="fill:#f8bc88;fill-rule:nonzero"/><path d="M84.957 5.427h-6.736c-15.547 0-30.619 12.63-28.807 31.102l2.064 21.025c.112 1.137 1.067 2.004 2.208 2.004 1.33 0 2.361-1.16 2.207-2.479l-.717-6.091C53.504 36.739 63.871 25.08 78.221 25.08h6.736c14.348 0 24.719 11.659 23.045 25.908l-.717 6.091c-.154 1.319.875 2.479 2.205 2.479 1.143 0 2.098-.867 2.209-2.004l2.065-21.025c1.812-18.472-13.26-31.102-28.807-31.102M51.879 66.9l.455 3.875C53.869 83.859 64.957 93.72 78.133 93.72h6.912c13.174 0 24.262-9.861 25.799-22.945l.455-3.875h-59.42Z" style="fill:#f58141;fill-rule:nonzero"/><path d="M64.444 61.01c0 1.9 1.527 3.439 3.408 3.439 1.879 0 3.405-1.539 3.405-3.439 0-1.9-1.526-3.439-3.405-3.439-1.881 0-3.408 1.539-3.408 3.439M91.922 61.01c0 1.9 1.523 3.439 3.404 3.439s3.407-1.539 3.407-3.439c0-1.9-1.526-3.439-3.407-3.439s-3.404 1.539-3.404 3.439" style="fill:#4b2639;fill-rule:nonzero"/><path d="M75.188 69.551c-.898 0-1.633.736-1.633 1.643 0 4.455 3.606 8.079 8.033 8.079 4.43 0 8.034-3.624 8.034-8.079 0-.907-.733-1.643-1.629-1.643-.901 0-1.633.736-1.633 1.643 0 2.642-2.141 4.794-4.772 4.794-2.63 0-4.769-2.152-4.769-4.794 0-.907-.733-1.643-1.631-1.643" style="fill:#f49e92;fill-rule:nonzero"/><path d="m67.057 100.275 1.283 74.114h-8.138l-11.688-32.041c-.996-2.735-.557-5.787 1.174-8.127l4.514-6.106-3.965-12.691c-1.383-4.422.924-9.154 5.259-10.79l11.561-4.359ZM96.121 100.275l-1.285 74.114h8.14l11.688-32.041c.996-2.735.557-5.787-1.176-8.127l-4.513-6.106 3.966-12.691c1.381-4.422-.925-9.154-5.259-10.79l-11.561-4.359Z" style="fill:#8591c8;fill-rule:nonzero"/><path d="M94.301 24.137c0 7.021-5.691 12.71-12.713 12.71-7.019 0-12.711-5.689-12.711-12.71 0-7.021 5.692-12.711 12.711-12.711 7.022 0 12.713 5.69 12.713 12.711" style="fill:#f58141;fill-rule:nonzero"/><path d="M88.731 23.709H74.448c-6.547 0-11.856-5.308-11.856-11.854v-.001C62.592 5.307 67.901 0 74.448 0h14.283c6.547 0 11.854 5.307 11.854 11.854v.001c0 6.546-5.307 11.854-11.854 11.854" style="fill:#f58141;fill-rule:nonzero"/><path d="M83.731 157.56c0 1.183-.959 2.142-2.143 2.142-1.181 0-2.14-.959-2.14-2.142 0-1.183.959-2.144 2.14-2.144 1.184 0 2.143.961 2.143 2.144M83.731 166.385c0 1.184-.959 2.143-2.143 2.143-1.181 0-2.14-.959-2.14-2.143 0-1.183.959-2.142 2.14-2.142 1.184 0 2.143.959 2.143 2.142" style="fill:#8591c8;fill-rule:nonzero"/><path d="M117.385 148.254H97.463c-1.709 0-3.094-1.386-3.094-3.095v-12.321c0-1.709 1.385-3.094 3.094-3.094h19.922c1.709 0 3.096 1.385 3.096 3.094v12.321c0 1.709-1.387 3.095-3.096 3.095" style="fill:#f58141;fill-rule:nonzero"/><path style="fill:#ded9d2" d="M94.37 133.052h26.111v11.897H94.37z"/><text x="95.371" y="141.101" style="font-family:'Arial-BoldMT','Arial',sans-serif;font-weight:700;font-size:5.947px;fill:#045156">V<tspan x="99.129px 100.573px 104.66px 108.746px 112.505px 116.591px" y="141.101px 141.101px 141.101px 141.101px 141.101px 141.101px">INCENT</tspan></text></svg>