<svg viewBox="0 0 1659 1675" xmlns="http://www.w3.org/2000/svg" xml:space="preserve" style="fill-rule:evenodd;clip-rule:evenodd;stroke-linecap:round;stroke-miterlimit:10">
  <path style="fill:#673b15;fill-rule:nonzero" d="M636.617 734.375h393.596v714.604H636.617z"/>
  <path style="fill:#f4b1b5;fill-rule:nonzero" d="M560.821 1150.42h486.825v387.592H560.821z"/>
  <path d="M816.275 1154.66 618.896 979.677l-23.609 68.333 110.492 221.525 110.496-114.875Z" style="fill:#d99fa2;fill-rule:nonzero"/>
  <path d="m833.817 1154.66 197.37-174.983 23.617 68.333-110.508 221.525-110.479-114.875Z" style="fill:#d99fa2;fill-rule:nonzero"/>
  <path d="M1640.42 1607.08c-22.009-74.613-55.367-144.7-94.434-211.942-27.512-47.383-55.416-95.025-88.433-138.729-75.638-100.1-172.821-173.192-295.279-211.421-1.846-.579-3.788-.821-5.684-1.216 13.734 29.333 11.659 58.254.563 88.191-.913 2.488-1.625 5.046-2.517 7.55-23.037-4.12-46.596-5.762-69.787-5.137-23.175.621-50.309.775-70.967 12.566-11.946 6.825-20.071 16.067-25.846 26.805-.333-1.03-148.533 256.095-156.233 271.979-6.142-12.809-124.183-191.159-163.321-270.404-.825-1.68-2.162-3.121-3.254-4.7-.508-3.955-1.167-7.909-1.729-11.871-17.009-26.721-29.154-96.175-29.154-177.908 0-1.821.054-3.575.066-5.396-20.721 7.654-41.433 15.308-62.375 22.312-28.2 9.429-54.687 20.854-72.271 46.017-1.9.396-3.845.637-5.679 1.216-122.471 38.23-219.658 111.321-295.296 211.421-33.016 43.704-60.912 91.346-88.425 138.73-39.062 67.245-72.42 137.329-94.433 211.941-7.146 24.192-10.721 49.413-15.929 74.171h240.429c3.438-5.929 6.508-12.083 10.363-17.721 48.379-70.516 96.87-140.954 145.345-211.396 1.675-2.454 3.525-4.775 7.9-6.454-6.608 78.521-13.208 157.038-19.816 235.571h887.929c-6.608-78.533-13.221-157.05-19.829-235.571 4.366 1.679 6.212 4 7.9 6.454 48.475 70.442 96.966 140.884 145.35 211.396 3.854 5.638 6.912 11.792 10.35 17.721h240.425c-5.208-24.758-8.788-49.983-15.929-74.175Zm-587.467-392.492c-.783.971-.879.592 0 0ZM832.04 1623.484c-11.125.117-21.116-9.25-21.454-20.133-.362-11.309 9.471-21.371 20.942-21.442 11.579-.079 21.537 9.633 21.462 20.929-.091 10.884-9.825 20.509-20.95 20.646Zm-.341-85.462c-11.496-.03-21.379-9.98-21.117-21.284.25-10.866 10.171-20.341 21.279-20.296 11.088.046 20.942 9.596 21.125 20.463.188 11.296-9.729 21.117-21.287 21.117Z" style="fill:#58585a;fill-rule:nonzero"/>
  <path d="M831.521 1581.9c11.579-.079 21.537 9.633 21.462 20.929-.091 10.883-9.825 20.508-20.95 20.646-11.125.117-21.116-9.25-21.454-20.133-.362-11.305 9.475-21.367 20.942-21.442Z" style="fill:#3e3d40;fill-rule:nonzero"/>
  <path d="M831.704 1538.02c-11.504-.03-21.387-9.98-21.121-21.284.25-10.866 10.171-20.341 21.279-20.296 11.088.046 20.942 9.596 21.125 20.463.184 11.296-9.733 21.117-21.283 21.117Z" style="fill:#3e3d40;fill-rule:nonzero"/>
  <path d="M667.1 1471.65c-.863-52.658-1.696-105.317-2.325-157.963-.296-24.25.167-48.52-.167-72.77-.154-11.071-2.071-22.15-1.954-33.2.129-12.384 1.65-24.742 2.571-37.109-.508-3.954-1.167-7.908-1.729-11.871-17.009-26.72-29.154-96.175-29.154-177.908 0-1.821.054-3.575.066-5.396-20.721 7.654-41.433 15.309-62.375 22.313-28.2 9.429-54.687 20.854-72.271 46.016-13.733 29.334-11.65 58.255-.57 88.192 11.191 30.258 20.054 61.363 28.891 92.375 1.596 5.608-.083 13.717-3.341 18.75-8.784 13.554-18.684 26.508-29.142 38.879-24.625 29.138-31.288 60.804-16.938 96.529 9.171 22.83 17.4 46.05 25.984 69.105 27.766 74.625 55.4 149.279 83.541 223.75 1.263 3.37 6.88 7.125 10.592 7.262 20.796.696 41.642.013 62.446.5 8.267.179 11.096-2.396 10.696-10.517-1.146-23.375-1.904-46.787-2.434-70.17-.954-42.242-1.691-84.505-2.387-126.767Z" style="fill:#707173;fill-rule:nonzero"/>
  <path d="M1160.76 1281.96c-10.462-12.37-20.375-25.324-29.15-38.879-3.262-5.033-4.946-13.141-3.354-18.75 8.854-31.012 17.708-62.116 28.896-92.375 11.096-29.937 13.171-58.858-.562-88.191-17.588-25.163-44.067-36.588-72.275-46.017-18.055-6.033-35.938-12.588-53.796-19.163-.063 46.959-4.338 121.021-38.913 188.717-.166 1.096-.35 2.213-.483 3.304.925 12.371 2.442 24.729 2.558 37.109.121 11.045-1.792 22.129-1.937 33.2-.334 24.25.116 48.52-.184 72.77-.62 52.646-1.458 105.305-2.321 157.963-.695 42.263-1.441 84.525-2.379 126.771-.529 23.383-1.291 46.792-2.425 70.171-.412 8.121 2.425 10.696 10.684 10.516 20.812-.487 41.637.196 62.433-.5 3.733-.137 9.342-3.896 10.612-7.262 28.138-74.471 55.784-149.125 83.542-223.75 8.579-23.054 16.804-46.275 25.975-69.104 14.363-35.725 7.696-67.392-16.921-96.53Z" style="fill:#707173;fill-rule:nonzero"/>
  <path d="M624.85 284.292c-20.2-31.534-40.396-63.071-60.596-94.609" style="fill:none;fill-rule:nonzero;stroke:#000;stroke-width:62.09px"/>
  <path d="M1043.6 259.837c23.421-31.816 35.029-72.129 32.104-111.533" style="fill:none;fill-rule:nonzero;stroke:#000;stroke-width:62.09px"/>
  <path d="M1123.43 401.2c21.029-43.567 30.396-92.692 26.88-140.942" style="fill:none;fill-rule:nonzero;stroke:#000;stroke-width:62.09px"/>
  <path d="M560.821 394.687c-9.075-42.316-18.138-84.637-27.2-126.958" style="fill:none;fill-rule:nonzero;stroke:#000;stroke-width:62.09px"/>
  <path d="M629.683 707.979c-67.471 33.742-122.462 91.767-152.537 160.954-30.071 69.184-34.996 148.975-13.654 221.325 6.72 22.8 16.05 45.521 15.27 69.271-.775 23.754-15.558 49.342-39.091 52.663" style="fill:none;fill-rule:nonzero;stroke:#000;stroke-width:62.09px"/>
  <path d="M670.217 727.379c-49.421 60.458-97.355 124.304-122.075 198.367-24.73 74.079-23.017 160.887 22.012 224.679" style="fill:none;fill-rule:nonzero;stroke:#000;stroke-width:62.09px"/>
  <path d="M678.879 816.342c-26.779 22.087-54.208 44.954-70.829 75.416-16.629 30.467-20.1 70.759.771 98.5 12.908 17.142 33.108 27.288 47.596 43.113 22.012 24.054 28.404 61.208 15.704 91.225" style="fill:none;fill-rule:nonzero;stroke:#000;stroke-width:62.09px"/>
  <path d="M1139.75 466.937c7.262-45.866 9.337-91.783-12.584-135.295-37.65-126.675-154.841-219.125-293.75-219.125-139.441 0-256.941 93.17-294.145 220.595-20.705 42.317-19.005 88.08-11.542 134.955-22.813 5.333-42.338 14.633-56.617 32.483-14.629 18.287-21.283 39.292-18.091 62.5 6.095 44.308 37.858 69.662 94.262 75.596 1.375 10.325 2.917 20.883 4.163 31.479 10.325 88.062 54.208 153.646 131.57 196.892 4.238 2.366 7.984 5.612 11.963 8.462 16.129 4.758 32.029 10.638 48.45 13.958 17.525 3.534 35.525 6.263 53.35 6.475 34.854.413 69.833.184 104.562-2.516 18.405-1.425 36.35-8.579 54.492-13.217 5.533-1.425 10.992-3.121 16.479-4.696 4.317-3.021 8.417-6.429 12.975-8.975 66.95-37.304 109.442-93.075 125.921-167.983 4.35-19.746 6.225-40.029 9.217-59.921 55.887-5.879 87.412-31.358 93.962-75.525 6.188-41.596-15.975-70.437-74.637-96.142ZM853.704 748.804c-6.533 1.871-13.596 1.833-20.413 2.683-26.008.575-48.429-11.904-62.562-32.241 20.242 4.204 41.2 6.454 62.696 6.454 21.75 0 42.958-2.338 63.433-6.646-9.642 14.004-23.754 24.167-43.154 29.75Z" style="fill:#915e36;fill-rule:nonzero"/>
  <path d="M833.287 751.487c-41.083.909-73.354-30.604-77.841-74.508-.95-9.225 6.321-17.896 14.916-18.683 10.421-.95 15.538 3.583 17.184 15.208 4.241 30 20.687 45.3 48.308 44.946 23.413-.304 39.629-16.446 43.783-43.588 2.046-13.316 7.305-18.075 18.25-16.512 9.763 1.392 15.034 11.179 13.234 22.958-5.292 34.4-23.5 57.734-57.417 67.5-6.537 1.871-13.6 1.829-20.417 2.679Z" style="fill:#b6754e;fill-rule:nonzero"/>
  <path d="M965.521 619.537c-19.342-.162-32.771-14.091-32.559-33.787.2-18.433 14.505-32.842 32.755-32.983 18.3-.138 33.454 15.104 33.516 33.725.042 18.812-14.629 33.2-33.712 33.045Z" style="fill:#532b3a;fill-rule:nonzero"/>
  <path d="M734.329 586.492c0 19.47-13.779 33.129-33.312 33.045-18.463-.083-32.746-14.237-32.955-32.637-.204-18.592 14.817-34.075 33.13-34.133 18.829-.063 33.137 14.504 33.137 33.725Z" style="fill:#532b3a;fill-rule:nonzero"/>
  <path d="M610.796 516.15c15.525-13.971 50.166-23.704 90.396-23.704 40.237 0 74.883 9.737 90.404 23.704" style="fill:none;fill-rule:nonzero;stroke:#532b3a;stroke-width:26.39px;stroke-linejoin:round"/>
  <path d="M889.092 516.15c15.52-13.971 50.158-23.704 90.404-23.704 40.225 0 74.866 9.737 90.383 23.704" style="fill:none;fill-rule:nonzero;stroke:#532b3a;stroke-width:26.39px;stroke-linejoin:round"/>
  <path d="M511.754 465.796c14.2 12.079 26.746 25.208 41.721 36.662-.204-.162.571.463 1.537 1.221 3.3-3.7 9.15-9.171 11.784-12.937 10.954-15.667 15.604-33.946 19.35-52.421 7.55-37.179 14.796-71.638 39.471-101.838 27.733-33.933 70.954-58.837 112.233-72.129 74.287-23.942 168.108-19.646 239.775 11.7 62.737 27.442 93.829 89.004 117.125 149.875 9.625 25.117 15.412 52.129 48.463 45.188 10.879-2.279 21.433-6.646 31.666-12.009-1.5-226.521-153.779-409.6-341.454-409.6-186.092 0-337.3 179.988-341.337 403.829 6.75 3.134 13.32 7.063 19.666 12.459Z" style="fill-rule:nonzero"/>
  <path d="M715.375 272.8c-18.492-37.175-62.154-124.967-80.65-162.133" style="fill:none;fill-rule:nonzero;stroke:#000;stroke-width:62.09px"/>
  <path d="M812.121 250.133c-30.379-35.691-92.488-141.879-87.738-188.508" style="fill:none;fill-rule:nonzero;stroke:#000;stroke-width:62.09px"/>
  <path d="M822.754 177.417c-13.504-46.913-14.158-97.459-1.858-144.705" style="fill:none;fill-rule:nonzero;stroke:#000;stroke-width:62.09px"/>
  <path d="M896.85 250.133c23.571-43.975 26.196-153.296 25.65-203.187" style="fill:none;fill-rule:nonzero;stroke:#000;stroke-width:62.09px"/>
  <path d="M977.617 276.05c12.758-38.342 24.812-135.354 37.562-173.696" style="fill:none;fill-rule:nonzero;stroke:#000;stroke-width:62.09px"/>
  <path d="M705.779 857.392a242.672 242.672 0 0 0 23.463 61.562c5.504 10.05 12.666 20.458 23.679 23.617 11.004 3.179 25.375-5.946 22.737-17.088 3.775-7.379 15.3-6.321 21.513-.833 6.212 5.483 9.387 13.629 14.825 19.887 5.433 6.242 38.221 6.242 43.662 0 5.425-6.262 8.609-14.404 14.821-19.887 6.204-5.483 17.738-6.546 21.496.833-2.638 11.142 11.729 20.263 22.754 17.088 11.004-3.159 18.171-13.567 23.663-23.617 10.579-19.329 18.491-40.112 23.462-61.562-33.742 7.416-77.029 13.875-127.496 13.908-50.941.058-94.621-6.446-128.579-13.908Z" style="fill:#3e3d40;fill-rule:nonzero"/>
  <path d="M1194.38 1210.08v118.9c0 16.279-14.646 29.484-32.742 29.484H947.972c-18.1 0-32.738-13.205-32.738-29.484v-118.9c0-16.308 14.642-29.496 32.738-29.496h213.666c18.096 0 32.742 13.188 32.742 29.496Z" style="fill:#ee8138;fill-rule:nonzero"/>
  <path style="fill:#e6e0d6;fill-rule:nonzero" d="M915.229 1213.49h279.15v113.458h-279.15z"/>
  <path d="m1000.17 1250.59-10.159-19.037h6.063l5.367 10.396c.695 1.337 1.241 2.546 1.662 3.821h.092c.516-1.3 1.029-2.334 1.725-3.788l5.125-10.429h5.762l-10.129 18.979v12.825h-5.517v-12.767h.009Z" style="fill:#004f54;fill-rule:nonzero"/>
  <path style="fill:#004f54;fill-rule:nonzero" d="M1019.21 1231.55h5.521v31.804h-5.521z"/>
  <path d="M1036 1239.88c.063 1.579.154 4.763.154 6.338v17.129h-4.912v-31.804h4.912l9.488 14.367c3.241 4.883 4.762 7.458 5.666 9.216h.088c-.029-1.662-.088-4.666-.088-6.179v-17.404h4.85v31.804h-4.85l-9.033-13.675c-3.942-5.912-5.154-8-6.125-9.792h-.15Z" style="fill:#004f54;fill-rule:nonzero"/>
  <path d="M1070.78 1248.98c-.758.758-1.821 1.913-2.517 2.608v11.763h-5.512v-31.804h5.512v13.341l12.675-13.341h7.063l-13.4 13.704 14.917 18.1h-7.034l-11.704-14.371Z" style="fill:#004f54;fill-rule:nonzero"/>
  <path d="M1102.64 1231.55h5.034l12.066 31.804h-5.733l-2.846-7.796h-12.675l-2.912 7.796h-5.575l12.641-31.804Zm-2.725 19.825h9.821l-2.941-8.184c-.663-1.758-1.33-3.82-1.788-5.483h-.246c-.516 1.725-1.208 3.817-1.846 5.546l-3 8.121Z" style="fill:#004f54;fill-rule:nonzero"/>
  <path d="M949.058 1282.54c-.333-2.363-1.908-4-4.516-4-2.58 0-4.305 1.637-4.305 3.97 0 2.605 2.184 3.909 5.7 5.03 6.792 2.154 9.184 5.7 9.184 10.491 0 4.667-3.363 9.821-10.459 9.821-5.912 0-10.158-3.337-11.004-9.612h5.609c.512 3.033 2.27 5.033 5.458 5.033 3.212 0 4.942-2.396 4.942-4.912 0-3.034-1.913-4.7-6.155-6.063-6.125-1.971-8.7-5.212-8.7-9.762 0-5.034 4.213-8.584 9.763-8.584 5.696 0 9.483 3.55 9.883 8.584h-5.4v.004Z" style="fill:#004f54;fill-rule:nonzero"/>
  <path d="M981.012 1292.81h-14.7v14.009h-5.487v-31.834h5.487v12.913h14.7v-12.913h5.517v31.834h-5.517v-14.009Z" style="fill:#004f54;fill-rule:nonzero"/>
  <path d="M1008.33 1273.96c10.458 0 16.796 8.096 16.796 16.946 0 9.279-7.217 16.946-16.825 16.946-11.675 0-16.888-9.063-16.888-16.946.004-9.092 7.096-16.946 16.917-16.946Zm-.088 28.921c6.396 0 11.246-5.121 11.246-11.975 0-6.729-4.487-12.004-11.187-12.004-6.367 0-11.246 5.096-11.246 12.004 0 6.854 4.85 11.975 11.187 11.975Z" style="fill:#004f54;fill-rule:nonzero"/>
  <path d="M1034.7 1283.36c.062 1.579.15 4.759.15 6.338v17.129h-4.913v-31.833h4.913l9.487 14.366c3.242 4.913 4.763 7.459 5.671 9.246h.088c-.034-1.696-.088-4.667-.088-6.212v-17.4h4.846v31.833h-4.846l-9.033-13.675c-3.942-5.938-5.154-8.033-6.129-9.792h-.146Z" style="fill:#004f54;fill-rule:nonzero"/>
  <path style="fill:#004f54;fill-rule:nonzero" d="M1061.38 1274.99h5.521v31.833h-5.521z"/>
  <path d="M1073.51 1274.99h8.067c6.575 0 10.729 2.908 10.729 8.062 0 3.608-2.517 5.854-5.458 6.733v.088c4.879.608 7.396 4.063 7.396 7.942 0 5.912-4.763 9.004-10.913 9.004h-9.821v-31.829Zm7.884 4.396h-2.642v8.67h2.854c3.425 0 5.183-1.762 5.183-4.487-.004-2.85-2.154-4.183-5.395-4.183Zm1.237 13.004h-3.883v10.004h4.304c3.733 0 5.612-1.942 5.612-5 .005-3.029-2.15-5.004-6.033-5.004Z" style="fill:#004f54;fill-rule:nonzero"/>
  <path d="M1108.76 1274.99h5.034l12.096 31.833h-5.73l-2.85-7.792h-12.704l-2.879 7.792h-5.612l12.646-31.833Zm-2.701 19.829h9.796l-2.941-8.159c-.634-1.791-1.3-3.82-1.755-5.516h-.245c-.517 1.729-1.213 3.821-1.88 5.55l-2.975 8.125Z" style="fill:#004f54;fill-rule:nonzero"/>
  <path d="M1153.3 1306.83h-6.609l-9.062-12.825h-3.038v12.825h-5.516v-31.833h9.641c8.517 0 11.55 4.666 11.55 9.579 0 4.516-3.125 7.791-6.854 8.7l9.888 13.554Zm-14.217-27.225h-4.487v10.033h4.52c3.517 0 5.459-2.091 5.459-4.941 0-3.213-1.942-5.092-5.492-5.092Z" style="fill:#004f54;fill-rule:nonzero"/>
  <path d="M1174.67 1279.84h-12.888v8.183h12.404v4.7h-12.404v9.25h13.4v4.85h-18.912v-31.833h18.4v4.85Z" style="fill:#004f54;fill-rule:nonzero"/>
</svg>
