<svg viewBox="0 0 684 730" xmlns="http://www.w3.org/2000/svg" xml:space="preserve" style="fill-rule:evenodd;clip-rule:evenodd;stroke-linecap:round;stroke-miterlimit:10">
  <path style="fill:#673b15;fill-rule:nonzero" d="M265.478 318.306h171.366v310.076H265.478z"/>
  <path style="fill:#f4b1b5;fill-rule:nonzero" d="M232.478 498.835h211.957v168.181H232.478z"/>
  <path d="m343.699 500.674-85.936-75.928-10.279 29.651 48.107 96.123 48.108-49.846Z" style="fill:#d99fa2;fill-rule:nonzero"/>
  <path d="m351.336 500.674 85.933-75.928 10.282 29.651-48.114 96.123-48.101-49.846Z" style="fill:#d99fa2;fill-rule:nonzero"/>
  <path d="M702.519 696.981c-9.582-32.375-24.106-62.787-41.115-91.964-11.979-20.56-24.128-41.232-38.503-60.196-32.931-43.435-75.244-75.15-128.56-91.738-.804-.252-1.649-.356-2.475-.528 5.98 12.728 5.076 25.277.245 38.267-.397 1.08-.707 2.19-1.095 3.276-10.031-1.788-20.288-2.5-30.385-2.229-10.09.269-21.904.336-30.898 5.453-5.201 2.961-8.738 6.971-11.253 11.631-.145-.447-64.669 111.123-68.022 118.015-2.674-5.558-54.067-82.946-71.107-117.332-.359-.729-.942-1.354-1.417-2.039-.221-1.716-.508-3.432-.753-5.151-7.405-11.595-12.693-41.732-12.693-77.197 0-.79.023-1.551.029-2.341-9.022 3.321-18.04 6.642-27.157 9.681-12.278 4.092-23.811 9.049-31.466 19.968-.827.171-1.675.276-2.473.528-53.322 16.588-95.636 48.303-128.568 91.738-14.375 18.963-26.52 39.636-38.499 60.196-17.007 29.179-31.531 59.589-41.115 91.964-3.111 10.497-4.667 21.441-6.935 32.184h104.68c1.496-2.573 2.833-5.243 4.511-7.69 21.064-30.598 42.177-61.161 63.282-91.727.729-1.065 1.535-2.072 3.439-2.8-2.877 34.071-5.75 68.14-8.627 102.217h386.592c-2.877-34.077-5.756-68.146-8.634-102.217 1.902.728 2.705 1.735 3.44 2.8 21.105 30.566 42.218 61.131 63.283 91.727 1.678 2.447 3.01 5.117 4.507 7.69h104.677c-2.267-10.743-3.826-21.689-6.935-32.186ZM446.744 526.674c-.341.422-.383.257 0 0Zm-96.182 177.425c-4.844.051-9.194-4.013-9.341-8.736-.158-4.907 4.123-9.273 9.118-9.304 5.041-.034 9.377 4.18 9.344 9.082-.04 4.722-4.278 8.899-9.121 8.958Zm-.149-37.083c-5.005-.013-9.308-4.33-9.194-9.235.109-4.715 4.428-8.827 9.265-8.807 4.827.02 9.117 4.164 9.197 8.879.082 4.902-4.236 9.163-9.268 9.163Z" style="fill:#58585a;fill-rule:nonzero"/>
  <path d="M350.337 686.057c5.041-.034 9.377 4.18 9.344 9.082-.04 4.722-4.277 8.899-9.121 8.958-4.844.051-9.194-4.013-9.341-8.736-.158-4.905 4.125-9.271 9.118-9.304Z" style="fill:#3e3d40;fill-rule:nonzero"/>
  <path d="M350.417 667.016c-5.009-.013-9.312-4.33-9.196-9.235.109-4.715 4.428-8.827 9.265-8.807 4.827.02 9.117 4.164 9.197 8.879.08 4.902-4.238 9.163-9.266 9.163Z" style="fill:#3e3d40;fill-rule:nonzero"/>
  <path d="M278.75 638.219c-.375-22.849-.738-45.699-1.012-68.542-.129-10.523.073-21.054-.073-31.576-.067-4.804-.901-9.612-.85-14.406.056-5.374.718-10.736 1.119-16.102-.221-1.716-.508-3.432-.753-5.151-7.405-11.594-12.693-41.731-12.693-77.197 0-.79.023-1.551.029-2.341-9.022 3.321-18.04 6.643-27.157 9.682-12.278 4.091-23.811 9.049-31.466 19.967-5.98 12.728-5.072 25.277-.249 38.267 4.873 13.13 8.732 26.626 12.579 40.083.695 2.434-.036 5.952-1.455 8.136-3.824 5.881-8.134 11.502-12.688 16.87-10.721 12.643-13.622 26.384-7.374 41.885 3.993 9.906 7.576 19.982 11.313 29.985 12.089 32.381 24.12 64.775 36.373 97.088.549 1.463 2.995 3.092 4.611 3.152 9.055.302 18.13.005 27.188.217 3.6.077 4.831-1.04 4.657-4.564-.499-10.142-.829-20.301-1.059-30.448-.416-18.329-.737-36.667-1.04-55.005Z" style="fill:#707173;fill-rule:nonzero"/>
  <path d="M493.682 555.911c-4.555-5.368-8.871-10.989-12.691-16.87-1.421-2.184-2.154-5.703-1.461-8.136 3.855-13.457 7.71-26.953 12.581-40.083 4.831-12.99 5.735-25.539-.245-38.267-7.657-10.919-19.186-15.876-31.467-19.967-7.861-2.618-15.647-5.462-23.422-8.315-.027 20.376-1.889 52.512-16.942 81.886-.073.476-.153.96-.211 1.434.403 5.368 1.064 10.73 1.114 16.102.053 4.793-.78 9.602-.843 14.406-.145 10.522.051 21.053-.08 31.576-.27 22.843-.635 45.693-1.011 68.542-.302 18.338-.627 36.676-1.035 55.007-.231 10.146-.563 20.304-1.056 30.448-.18 3.524 1.056 4.641 4.651 4.563 9.062-.211 18.129.085 27.183-.217 1.625-.059 4.067-1.69 4.62-3.151 12.251-32.314 24.288-64.707 36.373-97.088 3.735-10.003 7.317-20.079 11.309-29.985 6.254-15.501 3.351-29.242-7.367-41.885Z" style="fill:#707173;fill-rule:nonzero"/>
  <path d="M260.355 123.009c-8.795-13.682-17.588-27.367-26.382-41.052" style="fill:none;fill-rule:nonzero;stroke:#000;stroke-width:26.99px"/>
  <path d="M442.673 112.398c10.197-13.805 15.251-31.297 13.978-48.395" style="fill:none;fill-rule:nonzero;stroke:#000;stroke-width:26.99px"/>
  <path d="M477.431 173.737c9.156-18.904 13.234-40.22 11.703-61.156" style="fill:none;fill-rule:nonzero;stroke:#000;stroke-width:26.99px"/>
  <path d="M232.478 170.911c-3.951-18.361-7.897-36.725-11.843-55.088" style="fill:none;fill-rule:nonzero;stroke:#000;stroke-width:26.99px"/>
  <path d="M262.46 306.852c-29.376 14.641-53.319 39.819-66.413 69.84-13.093 30.02-15.237 64.643-5.945 96.036 2.926 9.893 6.988 19.752 6.649 30.058-.338 10.307-6.774 21.41-17.02 22.85" style="fill:none;fill-rule:nonzero;stroke:#000;stroke-width:26.99px"/>
  <path d="M280.107 315.27c-21.517 26.234-42.386 53.937-53.15 86.074-10.766 32.144-10.021 69.811 9.584 97.491" style="fill:none;fill-rule:nonzero;stroke:#000;stroke-width:26.99px"/>
  <path d="M283.879 353.872c-11.66 9.584-23.602 19.506-30.838 32.724-7.24 13.22-8.752 30.703.335 42.741 5.62 7.438 14.415 11.84 20.723 18.707 9.584 10.437 12.367 26.559 6.837 39.584" style="fill:none;fill-rule:nonzero;stroke:#000;stroke-width:26.99px"/>
  <path d="M484.534 202.261c3.162-19.902 4.065-39.825-5.479-58.706-16.392-54.966-67.416-95.081-127.895-95.081-60.711 0-111.868 40.428-128.067 95.719-9.014 18.362-8.274 38.219-5.025 58.558-9.932 2.315-18.433 6.35-24.65 14.095-6.369 7.936-9.266 17.05-7.877 27.12 2.654 19.226 16.483 30.227 41.041 32.802.599 4.48 1.27 9.061 1.812 13.659 4.496 38.211 23.602 66.669 57.284 85.434 1.845 1.027 3.476 2.435 5.209 3.672 7.022 2.064 13.945 4.616 21.094 6.056 7.63 1.534 15.467 2.718 23.228 2.81 15.175.179 30.404.08 45.525-1.092 8.013-.618 15.826-3.723 23.725-5.735 2.409-.618 4.786-1.354 7.175-2.037 1.879-1.311 3.664-2.79 5.649-3.895 29.149-16.187 47.649-40.386 54.824-72.89 1.894-8.568 2.71-17.369 4.013-26 24.333-2.551 38.058-13.607 40.91-32.771 2.694-18.049-6.955-30.564-32.496-41.718ZM359.993 324.567c-2.844.812-5.919.795-8.887 1.164-11.324.25-21.085-5.165-27.239-13.99 8.813 1.824 17.938 2.801 27.297 2.801 9.47 0 18.704-1.015 27.618-2.884-4.198 6.077-10.342 10.486-18.789 12.909Z" style="fill:#915e36;fill-rule:nonzero"/>
  <path d="M351.106 325.731c-17.887.394-31.937-13.279-33.891-32.33-.414-4.003 2.752-7.765 6.494-8.107 4.537-.412 6.765 1.555 7.482 6.599 1.846 13.018 9.007 19.657 21.032 19.503 10.194-.132 17.254-7.136 19.063-18.913.891-5.779 3.18-7.843 7.946-7.165 4.25.604 6.545 4.851 5.762 9.962-2.304 14.926-10.232 25.051-24.999 29.289-2.846.812-5.921.793-8.889 1.162Z" style="fill:#b6754e;fill-rule:nonzero"/>
  <path d="M408.679 268.477c-8.422-.071-14.268-6.115-14.176-14.661.087-7.999 6.315-14.251 14.261-14.312 7.967-.06 14.565 6.554 14.593 14.634.018 8.163-6.37 14.405-14.678 14.339Z" style="fill:#532b3a;fill-rule:nonzero"/>
  <path d="M308.021 254.138c0 8.448-5.999 14.375-14.504 14.339-8.038-.037-14.257-6.178-14.348-14.162-.089-8.067 6.451-14.786 14.424-14.811 8.198-.027 14.428 6.293 14.428 14.634Z" style="fill:#532b3a;fill-rule:nonzero"/>
  <path d="M254.236 223.615c6.76-6.062 21.842-10.285 39.357-10.285 17.519 0 32.603 4.225 39.361 10.285" style="fill:none;fill-rule:nonzero;stroke:#532b3a;stroke-width:11.47px;stroke-linejoin:round"/>
  <path d="M375.402 223.615c6.758-6.062 21.839-10.285 39.361-10.285 17.513 0 32.596 4.225 39.352 10.285" style="fill:none;fill-rule:nonzero;stroke:#532b3a;stroke-width:11.47px;stroke-linejoin:round"/>
  <path d="M211.115 201.766c6.182 5.241 11.645 10.938 18.164 15.908-.088-.07.249.201.67.53 1.437-1.605 3.984-3.979 5.13-5.614 4.769-6.798 6.794-14.729 8.425-22.746 3.287-16.132 6.442-31.084 17.185-44.188 12.075-14.724 30.892-25.53 48.865-31.298 32.344-10.388 73.192-8.524 104.395 5.077 27.315 11.907 40.851 38.62 50.994 65.032 4.191 10.899 6.711 22.62 21.1 19.608 4.737-.989 9.332-2.884 13.787-5.211-.653-98.29-66.953-177.73-148.664-177.73-81.022 0-146.856 78.099-148.614 175.226 2.939 1.36 5.8 3.065 8.563 5.406Z" style="fill-rule:nonzero"/>
  <path d="M299.769 118.023c-8.052-16.131-27.062-54.225-35.114-70.352" style="fill:none;fill-rule:nonzero;stroke:#000;stroke-width:26.99px"/>
  <path d="M341.89 108.187c-13.226-15.487-40.267-61.563-38.199-81.796" style="fill:none;fill-rule:nonzero;stroke:#000;stroke-width:26.99px"/>
  <path d="M346.52 76.635c-5.88-20.356-6.164-42.289-.809-62.789" style="fill:none;fill-rule:nonzero;stroke:#000;stroke-width:26.99px"/>
  <path d="M378.78 108.187c10.263-19.081 11.406-66.516 11.168-88.165" style="fill:none;fill-rule:nonzero;stroke:#000;stroke-width:26.99px"/>
  <path d="M413.945 119.433c5.555-16.637 10.803-58.732 16.354-75.369" style="fill:none;fill-rule:nonzero;stroke:#000;stroke-width:26.99px"/>
  <path d="M295.591 371.684c2.17 9.326 5.607 18.313 10.215 26.713 2.396 4.361 5.515 8.877 10.309 10.248 4.792 1.379 11.048-2.58 9.9-7.415 1.644-3.202 6.661-2.742 9.366-.361 2.705 2.379 4.087 5.913 6.455 8.629 2.365 2.708 16.641 2.708 19.01 0 2.362-2.717 3.748-6.25 6.453-8.629 2.701-2.38 7.722-2.841 9.359.361-1.149 4.835 5.106 8.792 9.907 7.415 4.791-1.371 7.911-5.887 10.302-10.248 4.606-8.387 8.051-17.405 10.215-26.713-14.691 3.219-33.537 6.021-55.51 6.035-22.179.026-41.196-2.797-55.981-6.035Z" style="fill:#3e3d40;fill-rule:nonzero"/>
  <path d="M508.32 524.722v51.592c0 7.064-6.376 12.793-14.255 12.793h-93.027c-7.881 0-14.254-5.729-14.254-12.793v-51.592c0-7.077 6.375-12.799 14.254-12.799h93.027c7.879 0 14.255 5.722 14.255 12.799Z" style="fill:#ee8138;fill-rule:nonzero"/>
  <path style="fill:#e6e0d6;fill-rule:nonzero" d="M386.782 526.201H508.32v49.231H386.782z"/>
  <path d="m403.517 554.302-8.183-15.283h4.883l4.323 8.346c.561 1.073 1.001 2.043 1.34 3.067h.073c.417-1.044.829-1.873 1.39-3.041l4.128-8.372h4.642l-8.159 15.236v10.296h-4.444v-10.249h.007Z" style="fill:#004f54;fill-rule:nonzero"/>
  <path style="fill:#004f54;fill-rule:nonzero" d="M418.852 539.016h4.447v25.532h-4.447z"/>
  <path d="M432.381 545.709c.051 1.268.124 3.823.124 5.088v13.751h-3.957v-25.532h3.957l7.643 11.533c2.611 3.92 3.836 5.988 4.564 7.399h.071c-.024-1.335-.071-3.746-.071-4.961v-13.971h3.907v25.532h-3.907l-7.276-10.978c-3.175-4.747-4.152-6.423-4.934-7.861h-.121Z" style="fill:#004f54;fill-rule:nonzero"/>
  <path d="M460.393 553.011c-.611.609-1.466 1.535-2.027 2.094v9.443h-4.44v-25.532h4.44v10.71l10.21-10.71h5.689l-10.794 11.001 12.016 14.531h-5.666l-9.428-11.537Z" style="fill:#004f54;fill-rule:nonzero"/>
  <path d="M486.056 539.016h4.054l9.72 25.532h-4.618l-2.292-6.259h-10.21l-2.346 6.259h-4.491l10.183-25.532Zm-2.195 15.915h7.911l-2.37-6.57c-.534-1.411-1.071-3.067-1.44-4.402h-.198c-.416 1.385-.973 3.064-1.487 4.453l-2.416 6.519Z" style="fill:#004f54;fill-rule:nonzero"/>
</svg>