<?xml version="1.0" encoding="utf-8"?>
<!-- Generator: Adobe Illustrator 14.0.0, SVG Export Plug-In . SVG Version: 6.00 Build 43363)  -->
<!DOCTYPE svg PUBLIC "-//W3C//DTD SVG 1.1//EN" "http://www.w3.org/Graphics/SVG/1.1/DTD/svg11.dtd">
<svg version="1.1" id="Layer_1" xmlns="http://www.w3.org/2000/svg" xmlns:xlink="http://www.w3.org/1999/xlink" x="0px" y="0px"
	 width="595.28px" height="595.28px" viewBox="0 0 595.28 595.28" enable-background="new 0 0 595.28 595.28" xml:space="preserve">
<rect x="239.15" y="274.956" fill="#673B15" width="94.463" height="171.505"/>
<rect x="220.959" y="374.808" fill="#F4B1B5" width="116.838" height="93.022"/>
<polygon fill="#D99FA2" points="282.268,375.825 234.897,333.829 229.231,350.229 255.749,403.395 "/>
<polygon fill="#D99FA2" points="286.478,375.825 333.847,333.829 339.515,350.229 312.993,403.395 "/>
<path fill="#58585A" d="M480.062,484.404c-5.282-17.907-13.288-34.728-22.664-50.866c-6.603-11.372-13.3-22.806-21.224-33.295
	c-18.153-24.024-41.477-41.566-70.867-50.741c-0.443-0.139-0.909-0.197-1.364-0.292c3.296,7.04,2.798,13.981,0.135,21.166
	c-0.219,0.597-0.39,1.211-0.604,1.812c-5.529-0.989-11.183-1.383-16.749-1.233c-5.562,0.149-12.074,0.186-17.032,3.016
	c-2.867,1.638-4.817,3.856-6.203,6.433c-0.08-0.247-35.648,61.463-37.496,65.275c-1.474-3.074-29.804-45.878-39.197-64.897
	c-0.198-0.403-0.519-0.749-0.781-1.128l0,0c-0.122-0.949-0.28-1.898-0.415-2.849c-4.082-6.413-6.997-23.082-6.997-42.698
	c0-0.437,0.013-0.858,0.016-1.295c-4.973,1.837-9.944,3.674-14.97,5.355c-6.768,2.263-13.125,5.005-17.345,11.044
	c-0.456,0.095-0.923,0.153-1.363,0.292c-29.393,9.175-52.718,26.717-70.871,50.741c-7.924,10.489-14.619,21.923-21.222,33.295
	c-9.375,16.139-17.381,32.959-22.664,50.866c-1.715,5.806-2.573,11.859-3.823,17.801h57.703c0.825-1.423,1.562-2.9,2.487-4.253
	c11.611-16.924,23.249-33.829,34.883-50.735c0.402-0.589,0.846-1.146,1.896-1.549c-1.586,18.845-3.17,37.689-4.756,56.537h213.103
	c-1.586-18.848-3.173-37.692-4.759-56.537c1.048,0.403,1.491,0.96,1.896,1.549c11.634,16.906,23.272,33.812,34.884,50.735
	c0.925,1.353,1.659,2.83,2.484,4.253h57.702C482.635,496.264,481.776,490.21,480.062,484.404z M339.07,390.206
	C338.882,390.439,338.859,390.348,339.07,390.206L339.07,390.206z M286.051,488.341c-2.67,0.028-5.068-2.22-5.149-4.832
	c-0.087-2.714,2.273-5.129,5.026-5.146c2.779-0.019,5.169,2.312,5.151,5.023C291.057,485.998,288.721,488.308,286.051,488.341z
	 M285.969,467.83c-2.759-0.007-5.131-2.395-5.068-5.108c0.06-2.608,2.441-4.882,5.107-4.871c2.661,0.011,5.026,2.303,5.07,4.911
	C291.123,465.473,288.743,467.83,285.969,467.83z"/>
<path fill="#3E3D40" d="M285.927,478.362c2.779-0.019,5.169,2.312,5.151,5.023c-0.022,2.612-2.358,4.922-5.028,4.955
	c-2.67,0.028-5.068-2.22-5.149-4.832C280.814,480.795,283.175,478.38,285.927,478.362z"/>
<path fill="#3E3D40" d="M285.971,467.83c-2.761-0.007-5.133-2.395-5.069-5.108c0.06-2.608,2.441-4.882,5.107-4.871
	c2.661,0.011,5.026,2.303,5.07,4.911C291.123,465.473,288.743,467.83,285.971,467.83z"/>
<path fill="#707173" d="M246.466,451.902c-0.207-12.638-0.407-25.276-0.558-37.911c-0.071-5.82,0.04-11.645-0.04-17.465
	c-0.037-2.657-0.497-5.316-0.469-7.968c0.031-2.972,0.396-5.938,0.617-8.906c-0.122-0.949-0.28-1.898-0.415-2.849
	c-4.082-6.413-6.997-23.082-6.997-42.698c0-0.437,0.013-0.858,0.016-1.295c-4.973,1.837-9.944,3.674-14.97,5.355
	c-6.768,2.263-13.125,5.005-17.345,11.044c-3.296,7.04-2.796,13.981-0.137,21.166c2.686,7.262,4.813,14.727,6.934,22.17
	c0.383,1.346-0.02,3.292-0.802,4.5c-2.108,3.253-4.484,6.362-6.994,9.331c-5.91,6.993-7.509,14.593-4.065,23.167
	c2.201,5.479,4.176,11.052,6.236,16.585c6.664,17.91,13.296,35.827,20.05,53.7c0.303,0.809,1.651,1.71,2.542,1.743
	c4.991,0.167,9.994,0.003,14.987,0.12c1.984,0.043,2.663-0.575,2.567-2.524c-0.275-5.61-0.457-11.229-0.584-16.841
	C246.81,472.188,246.633,462.045,246.466,451.902z"/>
<path fill="#707173" d="M364.944,406.377c-2.511-2.969-4.89-6.078-6.996-9.331c-0.783-1.208-1.187-3.154-0.805-4.5
	c2.125-7.443,4.25-14.908,6.935-22.17c2.663-7.185,3.161-14.126-0.135-21.166c-4.221-6.039-10.576-8.781-17.346-11.044
	c-4.333-1.448-8.625-3.021-12.911-4.599c-0.015,11.27-1.041,29.045-9.339,45.292c-0.04,0.263-0.084,0.531-0.116,0.793
	c0.222,2.969,0.586,5.935,0.614,8.906c0.029,2.651-0.43,5.311-0.465,7.968c-0.08,5.82,0.028,11.645-0.044,17.465
	c-0.149,12.635-0.35,25.273-0.557,37.911c-0.167,10.143-0.346,20.286-0.571,30.425c-0.127,5.612-0.31,11.23-0.582,16.841
	c-0.099,1.949,0.582,2.567,2.564,2.524c4.995-0.117,9.993,0.047,14.984-0.12c0.896-0.033,2.242-0.935,2.547-1.743
	c6.753-17.873,13.388-35.79,20.05-53.7c2.059-5.533,4.033-11.106,6.234-16.585C372.452,420.97,370.852,413.37,364.944,406.377z"/>
<path fill="none" stroke="#000000" stroke-width="14.9011" stroke-linecap="round" stroke-miterlimit="10" d="M236.326,166.936
	c-4.848-7.568-9.695-15.137-14.543-22.706"/>
<path fill="none" stroke="#000000" stroke-width="14.9011" stroke-linecap="round" stroke-miterlimit="10" d="M336.826,161.067
	c5.621-7.636,8.407-17.311,7.705-26.768"/>
<path fill="none" stroke="#000000" stroke-width="14.9011" stroke-linecap="round" stroke-miterlimit="10" d="M355.986,194.994
	c5.047-10.456,7.295-22.246,6.451-33.826"/>
<path fill="none" stroke="#000000" stroke-width="14.9011" stroke-linecap="round" stroke-miterlimit="10" d="M220.959,193.431
	c-2.178-10.156-4.353-20.313-6.528-30.47"/>
<path fill="none" stroke="#000000" stroke-width="14.9011" stroke-linecap="round" stroke-miterlimit="10" d="M237.486,268.621
	c-16.193,8.098-29.391,22.024-36.609,38.629c-7.217,16.604-8.399,35.754-3.277,53.118c1.613,5.472,3.852,10.925,3.665,16.625
	c-0.186,5.701-3.734,11.842-9.382,12.639"/>
<path fill="none" stroke="#000000" stroke-width="14.9011" stroke-linecap="round" stroke-miterlimit="10" d="M247.214,273.277
	c-11.861,14.51-23.365,29.833-29.298,47.608c-5.935,17.779-5.524,38.613,5.283,53.923"/>
<path fill="none" stroke="#000000" stroke-width="14.9011" stroke-linecap="round" stroke-miterlimit="10" d="M249.293,294.628
	c-6.427,5.301-13.01,10.789-16.999,18.1c-3.991,7.312-4.824,16.982,0.185,23.64c3.098,4.114,7.946,6.549,11.423,10.347
	c5.283,5.773,6.817,14.69,3.769,21.894"/>
<path fill="#915E36" d="M359.901,210.771c1.743-11.008,2.241-22.028-3.02-32.471c-9.036-30.402-37.162-52.59-70.5-52.59
	c-33.466,0-61.666,22.361-70.595,52.943c-4.969,10.156-4.561,21.139-2.77,32.389c-5.475,1.28-10.161,3.512-13.588,7.796
	c-3.511,4.389-5.108,9.43-4.342,15c1.463,10.634,9.086,16.719,22.623,18.143c0.33,2.478,0.7,5.012,0.999,7.555
	c2.478,21.135,13.01,36.875,31.577,47.254c1.017,0.568,1.916,1.347,2.871,2.031c3.871,1.142,7.687,2.553,11.628,3.35
	c4.206,0.848,8.526,1.503,12.804,1.554c8.365,0.099,16.76,0.044,25.095-0.604c4.417-0.342,8.724-2.059,13.078-3.172
	c1.328-0.342,2.638-0.749,3.955-1.127c1.036-0.725,2.02-1.543,3.114-2.154c16.068-8.953,26.266-22.338,30.221-40.316
	c1.044-4.739,1.494-9.607,2.212-14.381c13.413-1.411,20.979-7.526,22.551-18.126C379.299,223.862,373.98,216.94,359.901,210.771z
	 M291.25,278.419c-1.568,0.449-3.263,0.44-4.899,0.644c-6.242,0.138-11.623-2.857-15.015-7.738
	c4.858,1.009,9.888,1.549,15.047,1.549c5.22,0,10.31-0.561,15.224-1.595C299.293,274.64,295.906,277.079,291.25,278.419z"/>
<path fill="#B6754E" d="M286.351,279.063c-9.86,0.218-17.605-7.345-18.682-17.882c-0.228-2.214,1.517-4.295,3.58-4.484
	c2.501-0.228,3.729,0.86,4.124,3.65c1.018,7.2,4.965,10.872,11.594,10.787c5.619-0.073,9.511-3.947,10.508-10.461
	c0.491-3.196,1.753-4.338,4.38-3.963c2.343,0.334,3.608,2.683,3.176,5.51c-1.27,8.256-5.64,13.856-13.78,16.2
	C289.682,278.869,287.987,278.859,286.351,279.063z"/>
<path fill="#532B3A" d="M318.087,247.395c-4.642-0.039-7.865-3.382-7.814-8.109c0.048-4.424,3.481-7.882,7.861-7.916
	c4.392-0.033,8.029,3.625,8.044,8.094C326.188,243.979,322.667,247.432,318.087,247.395z"/>
<path fill="#532B3A" d="M262.601,239.464c0,4.673-3.307,7.951-7.995,7.931c-4.431-0.02-7.859-3.417-7.909-7.833
	c-0.049-4.462,3.556-8.178,7.951-8.192C259.167,231.355,262.601,234.851,262.601,239.464z"/>
<path fill="none" stroke="#532B3A" stroke-width="6.333" stroke-linecap="round" stroke-linejoin="round" stroke-miterlimit="10" d="
	M232.953,222.582c3.726-3.353,12.04-5.689,21.695-5.689c9.657,0,17.972,2.337,21.697,5.689"/>
<path fill="none" stroke="#532B3A" stroke-width="6.333" stroke-linecap="round" stroke-linejoin="round" stroke-miterlimit="10" d="
	M299.744,222.582c3.725-3.353,12.038-5.689,21.697-5.689c9.654,0,17.968,2.337,21.692,5.689"/>
<path d="M209.183,210.497c3.408,2.899,6.419,6.05,10.013,8.799c-0.049-0.039,0.137,0.111,0.369,0.293
	c0.792-0.888,2.196-2.201,2.828-3.105c2.629-3.76,3.745-8.147,4.644-12.581c1.812-8.923,3.551-17.193,9.473-24.441
	c6.656-8.144,17.029-14.121,26.936-17.311c17.829-5.746,40.346-4.715,57.546,2.808c15.057,6.586,22.519,21.361,28.11,35.97
	c2.31,6.028,3.699,12.511,11.631,10.845c2.611-0.547,5.144-1.595,7.6-2.882c-0.36-54.365-36.907-98.304-81.949-98.304
	c-44.662,0-80.952,43.197-81.921,96.919C206.083,208.259,207.66,209.202,209.183,210.497z"/>
<path fill="none" stroke="#000000" stroke-width="14.9011" stroke-linecap="round" stroke-miterlimit="10" d="M258.052,164.178
	c-4.438-8.922-14.917-29.992-19.356-38.912"/>
<path fill="none" stroke="#000000" stroke-width="14.9011" stroke-linecap="round" stroke-miterlimit="10" d="M281.271,158.738
	c-7.291-8.566-22.197-34.051-21.057-45.242"/>
<path fill="none" stroke="#000000" stroke-width="14.9011" stroke-linecap="round" stroke-miterlimit="10" d="M283.823,141.286
	c-3.241-11.259-3.398-23.39-0.446-34.729"/>
<path fill="none" stroke="#000000" stroke-width="14.9011" stroke-linecap="round" stroke-miterlimit="10" d="M301.606,158.738
	c5.657-10.554,6.287-36.791,6.156-48.765"/>
<path fill="none" stroke="#000000" stroke-width="14.9011" stroke-linecap="round" stroke-miterlimit="10" d="M320.99,164.958
	c3.062-9.202,5.955-32.485,9.015-41.687"/>
<path fill="#3E3D40" d="M255.749,304.48c1.193,5.148,3.094,10.137,5.631,14.775c1.321,2.412,3.04,4.91,5.683,5.668
	c2.641,0.763,6.09-1.427,5.457-4.101c0.906-1.771,3.672-1.517,5.163-0.2c1.491,1.316,2.253,3.271,3.558,4.773
	c1.304,1.498,9.173,1.498,10.479,0c1.302-1.503,2.066-3.457,3.557-4.773c1.489-1.316,4.257-1.571,5.159,0.2
	c-0.633,2.674,2.815,4.863,5.461,4.101c2.641-0.758,4.361-3.256,5.679-5.668c2.539-4.639,4.438-9.627,5.631-14.775
	c-8.098,1.78-18.487,3.33-30.599,3.338C274.382,307.832,263.899,306.271,255.749,304.48z"/>
<path fill="#EE8138" d="M373.013,389.126v28.536c0,3.907-3.515,7.076-7.858,7.076h-51.28c-4.344,0-7.857-3.169-7.857-7.076v-28.536
	c0-3.914,3.514-7.079,7.857-7.079h51.28C369.498,382.047,373.013,385.212,373.013,389.126z"/>
<rect x="306.017" y="389.944" fill="#E6E0D6" width="66.996" height="27.23"/>
<g>
	<g>
		<path fill="#004F54" d="M326.403,398.847l-2.438-4.569h1.455l1.288,2.495c0.167,0.321,0.298,0.611,0.399,0.917h0.022
			c0.124-0.312,0.247-0.56,0.414-0.909l1.23-2.503h1.383l-2.431,4.555v3.078h-1.324V398.847z"/>
		<path fill="#004F54" d="M330.972,394.277h1.325v7.633h-1.325V394.277z"/>
		<path fill="#004F54" d="M335.003,396.278c0.015,0.379,0.037,1.143,0.037,1.521v4.111h-1.179v-7.633h1.179l2.277,3.448
			c0.778,1.172,1.143,1.79,1.36,2.212h0.021c-0.007-0.399-0.021-1.12-0.021-1.483v-4.177h1.164v7.633h-1.164l-2.168-3.282
			c-0.946-1.419-1.237-1.92-1.47-2.35H335.003z"/>
		<path fill="#004F54" d="M343.349,398.461c-0.182,0.182-0.437,0.459-0.604,0.626v2.823h-1.323v-7.633h1.323v3.202l3.042-3.202
			h1.695l-3.216,3.289l3.58,4.344h-1.688L343.349,398.461z"/>
		<path fill="#004F54" d="M350.995,394.277h1.208l2.896,7.633h-1.376l-0.683-1.871h-3.042l-0.699,1.871h-1.338L350.995,394.277z
			 M350.341,399.035h2.357l-0.706-1.964c-0.159-0.422-0.319-0.917-0.429-1.316h-0.059c-0.124,0.414-0.29,0.916-0.443,1.331
			L350.341,399.035z"/>
		<path fill="#004F54" d="M314.136,406.516c-0.08-0.567-0.458-0.96-1.084-0.96c-0.619,0-1.033,0.393-1.033,0.953
			c0,0.625,0.524,0.938,1.368,1.207c1.63,0.517,2.204,1.368,2.204,2.518c0,1.12-0.807,2.357-2.51,2.357
			c-1.419,0-2.438-0.801-2.641-2.307h1.346c0.123,0.728,0.545,1.208,1.31,1.208c0.771,0,1.186-0.575,1.186-1.179
			c0-0.728-0.459-1.128-1.477-1.455c-1.47-0.473-2.088-1.251-2.088-2.343c0-1.208,1.011-2.06,2.343-2.06
			c1.367,0,2.276,0.852,2.372,2.06H314.136z"/>
		<path fill="#004F54" d="M321.805,408.981h-3.528v3.362h-1.317v-7.64h1.317v3.099h3.528v-3.099h1.324v7.64h-1.324V408.981z"/>
		<path fill="#004F54" d="M328.36,404.456c2.51,0,4.031,1.943,4.031,4.067c0,2.227-1.732,4.067-4.038,4.067
			c-2.802,0-4.053-2.175-4.053-4.067C324.301,406.341,326.003,404.456,328.36,404.456z M328.339,411.397
			c1.535,0,2.699-1.229,2.699-2.874c0-1.615-1.077-2.881-2.685-2.881c-1.528,0-2.699,1.223-2.699,2.881
			C325.654,410.168,326.818,411.397,328.339,411.397z"/>
		<path fill="#004F54" d="M334.69,406.712c0.015,0.379,0.036,1.142,0.036,1.521v4.111h-1.179v-7.64h1.179l2.277,3.448
			c0.778,1.179,1.143,1.79,1.361,2.219h0.021c-0.008-0.407-0.021-1.12-0.021-1.491v-4.176h1.163v7.64h-1.163l-2.168-3.282
			c-0.946-1.425-1.237-1.928-1.471-2.35H334.69z"/>
		<path fill="#004F54" d="M341.093,404.704h1.325v7.64h-1.325V404.704z"/>
		<path fill="#004F54" d="M344.004,404.704h1.936c1.578,0,2.575,0.698,2.575,1.935c0,0.866-0.604,1.405-1.31,1.616v0.021
			c1.171,0.146,1.775,0.975,1.775,1.906c0,1.419-1.143,2.161-2.619,2.161h-2.357V404.704z M345.896,405.759h-0.634v2.081h0.685
			c0.822,0,1.244-0.423,1.244-1.077C347.19,406.079,346.674,405.759,345.896,405.759z M346.193,408.88h-0.932v2.401h1.033
			c0.896,0,1.347-0.466,1.347-1.2C347.642,409.354,347.125,408.88,346.193,408.88z"/>
		<path fill="#004F54" d="M352.465,404.704h1.208l2.903,7.64h-1.375l-0.684-1.87h-3.049l-0.691,1.87h-1.347L352.465,404.704z
			 M351.817,409.463h2.351l-0.706-1.958c-0.152-0.43-0.312-0.917-0.421-1.324h-0.059c-0.124,0.415-0.291,0.917-0.451,1.332
			L351.817,409.463z"/>
		<path fill="#004F54" d="M363.153,412.344h-1.586l-2.175-3.078h-0.729v3.078h-1.324v-7.64h2.314c2.044,0,2.772,1.12,2.772,2.299
			c0,1.084-0.75,1.87-1.645,2.088L363.153,412.344z M359.741,405.81h-1.077v2.408h1.085c0.844,0,1.31-0.502,1.31-1.186
			C361.059,406.261,360.593,405.81,359.741,405.81z"/>
		<path fill="#004F54" d="M368.283,405.868h-3.093v1.964h2.977v1.128h-2.977v2.22h3.216v1.164h-4.539v-7.64h4.416V405.868z"/>
	</g>
</g>
</svg>
