<?xml version="1.0" encoding="UTF-8"?> <svg xmlns="http://www.w3.org/2000/svg" id="Layer_1" x="0" y="0" viewBox="0 0 287.79 121.34" xml:space="preserve"><style>.st0{fill:#f9f2ec}</style><path class="st0" d="M281.43 46.69c-2.37-9.01-9.46-15.5-21.54-14.23-11.85 1.25-18.41 8.82-17.44 18.09.91 8.68 6.75 13.41 17.66 15.7 9.6 2.19 12.35 4.63 12.79 8.86.41 3.87-2.09 7.22-7.02 7.74-5.87.62-9.05-2.61-10.13-7.24l-12.2 1.28c2.15 10.33 9.5 17.03 22.99 15.61 12.91-1.36 19.89-9.44 18.8-19.77-.83-7.86-5.7-13.64-18.2-16.24-10.08-2.26-12.09-4.42-12.45-7.83-.33-3.17 1.83-6.24 6.41-6.72 3.87-.41 7.21 1.97 8.22 6.02l12.11-1.27zM196.81 39.87l7.07.37-1.37 26.04c-.6 11.55 2.72 20.23 16.74 20.96 3.3.17 7.09-.1 10.08-.77l.56-10.72c-2.03.37-4.65.7-6.88.58-5.42-.28-7.66-2.53-7.26-10.19l1.32-25.21 14.02.74.58-11.08-14.02-.73.95-18.03-13.2-.69-.94 18.03-7.07-.37-.58 11.07zM183.25 34.34c-1.43-.09-2.85-.06-4.96.17-7.51.79-12.62 6.31-14.7 11.39l-.35.04-.84-7.98-12.91 1.36 5.91 56.2 13.14-1.38-2.98-28.39c-1.23-11.73 3.43-18.15 12.35-19.09 2.93-.31 4.97-.17 6.63-.1l-1.29-12.22zM15.7 63.14c-.96-9.15 3.67-19.25 15.05-20.44 9.27-.97 17.46 5.88 18.66 17.26 1.13 10.8-5.94 19.13-14.86 20.07-11.38 1.19-17.87-7.5-18.85-16.89M55.65 2l-12.9 1.36 3.71 35.32-.35.04c-4.64-4.61-10.32-7.93-19.59-6.96C11.38 33.34.35 46.96 2.2 64.56 4.31 84.63 19.45 93.24 32.12 91.9c9.27-.97 15.27-5.99 18.57-10.73l.35-.04.7 6.69 12.79-1.34L55.65 2zM88.79 53.76c.8-9.17 7.15-18.09 18.79-17.07 9.17.8 15.91 8.97 14.92 20.37-.95 10.81-9.6 17.64-18.29 16.87-11.65-1.01-16.24-10.76-15.42-20.17m48.41-24.07l-12.81-1.12-.67 7.64-.24-.02c-3.02-4.76-8.23-10.2-17.63-11.02-15.28-1.34-29.02 9.54-30.58 27.41-1.76 20.1 11.7 31.46 24.39 32.57 9.28.81 15.78-3 20.08-7.48l.35.03-.63 7.17 12.81 1.12 4.93-56.3z"></path><path d="M76.64 119.25c-11.05 0-21.92-3.07-31.43-8.88l6.6-10.81c7.52 4.6 16.11 7.03 24.83 7.03 8.72 0 17.3-2.43 24.83-7.03l6.6 10.81c-9.52 5.81-20.39 8.88-31.43 8.88" fill="#f5afb8"></path></svg>
