<?xml version="1.0" encoding="UTF-8" standalone="no"?><!DOCTYPE svg PUBLIC "-//W3C//DTD SVG 1.1//EN" "http://www.w3.org/Graphics/SVG/1.1/DTD/svg11.dtd"><svg width="100%" height="100%" viewBox="0 0 1034 1005" version="1.1" xmlns="http://www.w3.org/2000/svg" xmlns:xlink="http://www.w3.org/1999/xlink" xml:space="preserve" xmlns:serif="http://www.serif.com/" style="fill-rule:evenodd;clip-rule:evenodd;stroke-miterlimit:10;"><path d="M966.733,717.742c0,-0.179 -0.008,-0.354 -0.016,-0.534c-0.088,-1.941 -0.038,-6.287 0.016,-10.883c0.179,-14.742 0.121,-24.271 -0.633,-30.675c6.362,-9.696 9.804,-21.217 9.771,-32.992l-0,-42.329c-0,-9.087 3.921,-18.554 10.808,-26.4c32.7,-35.141 32.7,-109.483 0.229,-144.383c-7.116,-8.092 -11.037,-17.558 -11.037,-26.65l-0,-42.296c0.033,-11.796 -3.409,-23.325 -9.771,-33.021c0.763,-6.412 0.821,-15.925 0.642,-30.675c-0.063,-4.6 -0.113,-8.946 -0.025,-10.862c0.008,-0.184 0.016,-0.371 0.016,-0.554c0,-5.609 2.521,-11.571 6.875,-16.525c28.43,-30.421 28.438,-94.775 0.242,-124.942c-4.596,-5.209 -7.117,-11.171 -7.117,-16.784c0,-0.183 -0.008,-0.362 -0.016,-0.541c1.158,-4.875 1.725,-9.875 1.675,-14.834c-0,-34.775 -28.288,-63.066 -63.067,-63.066c-11.554,-0 -22.888,3.204 -32.658,9.075c-14.475,-13.234 -37.042,-20.829 -62.096,-20.829c-25.333,-0 -48.146,7.746 -62.329,21.012c-5.221,4.592 -11.184,7.117 -16.792,7.117c-0.183,-0 -0.371,0.004 -0.554,0.012c-0.804,0.042 -1.913,0.05 -3.234,0.05c-2.125,0 -4.741,-0.033 -7.62,-0.066c-3.642,-0.042 -7.692,-0.092 -11.709,-0.092c-9.154,0 -14.975,0.267 -18.975,0.733c-9.654,-6.333 -21.137,-9.775 -32.987,-9.775l-42.334,0c-9.091,0 -18.558,-3.921 -26.4,-10.808c-16.416,-15.275 -42.379,-24.075 -71.337,-24.271l-0,-0.016c-0.071,-0 -0.146,0.008 -0.213,0.008c-0.079,-0 -0.145,-0.008 -0.216,-0.008l-0,0.016c-28.959,0.196 -54.921,8.996 -71.096,24.046c-8.088,7.117 -17.55,11.038 -26.642,11.038l-42.475,-0.005c-11.733,0 -23.2,3.442 -32.85,9.775c-4,-0.462 -9.837,-0.729 -18.991,-0.729c-4,0 -8.034,0.046 -11.663,0.092c-2.879,0.033 -5.5,0.062 -7.629,0.062c-1.338,0 -2.45,-0.008 -3.271,-0.045c-0.179,-0.009 -0.358,-0.013 -0.537,-0.013c-5.605,0 -11.567,-2.529 -16.525,-6.883c-14.45,-13.504 -37.267,-21.246 -62.6,-21.246c-25.171,-0 -47.834,7.658 -62.042,20.771c-9.604,-5.909 -20.496,-9.029 -31.921,-9.029c-17.121,-0 -33.9,7.012 -46.029,19.245c-11.642,11.755 -17.975,27.355 -17.829,43.725c-0.042,4.975 0.521,9.955 1.666,14.825l0,0.655c0,5.612 -2.529,11.575 -6.883,16.529c-28.425,30.421 -28.425,94.771 -0.237,124.933c4.591,5.217 7.12,11.179 7.12,16.792c0,0.179 0,0.354 0.009,0.533c0.091,1.942 0.041,6.283 -0.017,10.883c-0.175,14.742 -0.112,24.271 0.642,30.671c-6.371,9.696 -9.809,21.221 -9.771,32.992l-0,42.329c-0,9.092 -3.921,18.558 -10.817,26.4c-32.691,35.146 -32.691,109.488 -0.216,144.388c7.112,8.091 11.033,17.558 11.033,26.645l-0,42.3c-0.038,11.796 3.4,23.321 9.771,33.017c-0.763,6.413 -0.817,15.929 -0.642,30.679c0.058,4.6 0.117,8.946 0.025,10.863c-0.017,0.183 -0.017,0.371 -0.017,0.554c0,5.608 -2.529,11.567 -6.883,16.525c-28.425,30.421 -28.425,94.775 -0.237,124.942c4.591,5.208 7.12,11.17 7.12,16.779c0,0.183 0,0.362 0.009,0.541c-1.152,4.861 -1.714,9.843 -1.675,14.838c-0,34.779 28.296,63.071 63.075,63.071c11.55,-0 22.887,-3.209 32.658,-9.079c14.471,13.233 37.038,20.829 62.096,20.829c25.329,-0 48.146,-7.742 62.329,-21.013c5.221,-4.591 11.183,-7.116 16.788,-7.116c0.183,-0 0.37,-0.005 0.554,-0.013c0.804,-0.042 1.912,-0.05 3.233,-0.05c2.125,0 4.742,0.033 7.625,0.067c3.642,0.046 7.688,0.091 11.704,0.091c9.154,0 14.979,-0.266 18.979,-0.729c9.65,6.329 21.134,9.771 32.988,9.771l42.333,0c9.092,0 18.554,3.921 26.4,10.808c16.413,15.275 42.379,24.071 71.338,24.267l-0,0.021c0.071,-0 0.137,-0.008 0.216,-0.008c0.067,-0 0.142,0.008 0.213,0.008l-0,-0.021c28.958,-0.196 54.917,-8.992 71.092,-24.042c8.087,-7.116 17.554,-11.037 26.645,-11.037l42.475,-0c11.73,-0 23.196,-3.438 32.85,-9.771c4,0.463 9.834,0.729 18.988,0.729c4,0 8.033,-0.046 11.662,-0.091c2.884,-0.034 5.5,-0.067 7.63,-0.067c1.337,-0 2.45,0.012 3.27,0.05c0.18,0.008 0.359,0.012 0.538,0.012c5.608,0 11.571,2.525 16.525,6.88c14.454,13.508 37.267,21.25 62.6,21.25c25.171,-0 47.842,-7.659 62.042,-20.771c9.608,5.912 20.491,9.033 31.925,9.033c17.125,0 33.895,-7.017 46.02,-19.254c11.646,-11.75 17.98,-27.35 17.83,-43.725c0.041,-4.971 -0.513,-9.95 -1.659,-14.821l0,-0.658c0,-5.609 2.521,-11.571 6.875,-16.525c28.438,-30.421 28.438,-94.771 0.246,-124.938c-4.6,-5.216 -7.121,-11.175 -7.121,-16.787Z" style="fill:#532b3a;fill-rule:nonzero;stroke:#231f20;stroke-width:4.17px;"/><path d="M529.908,60.121c0,-7.629 -6.195,-13.825 -13.825,-13.825c-7.629,-0 -13.825,6.196 -13.825,13.825c0,7.633 6.196,13.825 13.825,13.825c7.63,-0 13.825,-6.192 13.825,-13.825Zm-44.05,11.021c0,-4.271 -3.47,-7.742 -7.745,-7.742c-4.275,0 -7.746,3.471 -7.746,7.742c-0,4.275 3.471,7.741 7.745,7.741c4.276,0 7.746,-3.466 7.746,-7.741Zm75.942,-0c0,-4.271 -3.467,-7.742 -7.742,-7.742c-4.275,0 -7.745,3.471 -7.745,7.742c-0,4.275 3.47,7.741 7.745,7.741c4.275,0 7.742,-3.466 7.742,-7.741Zm-59.542,871.966c0,7.63 6.196,13.825 13.825,13.825c7.634,0 13.825,-6.195 13.825,-13.825c0,-7.629 -6.191,-13.82 -13.825,-13.82c-7.629,-0 -13.825,6.191 -13.825,13.82Zm44.059,-11.02c-0,4.275 3.466,7.741 7.741,7.741c4.275,0 7.746,-3.466 7.746,-7.741c0,-4.271 -3.471,-7.742 -7.746,-7.742c-4.275,-0 -7.741,3.471 -7.741,7.742Zm-75.95,-0c-0,4.275 3.471,7.741 7.745,7.741c4.276,0 7.746,-3.466 7.746,-7.741c0,-4.271 -3.47,-7.742 -7.745,-7.742c-4.275,-0 -7.746,3.471 -7.746,7.742Z" style="fill:#ff7f30;stroke:#231f20;stroke-width:4.17px;"/><rect x="119.883" y="105.417" width="792.404" height="792.4" style="fill:#ff7f30;stroke:#231f20;stroke-width:4.17px;"/><rect x="143.504" y="129.038" width="745.158" height="745.158" style="fill:#ff7f30;stroke:#231f20;stroke-width:4.17px;"/><rect x="155.313" y="140.85" width="721.538" height="721.533" style="fill:#025157;stroke:#231f20;stroke-width:4.17px;"/><ellipse cx="63.392" cy="501.617" rx="13.821" ry="13.829" style="fill:#ff7f30;stroke:#231f20;stroke-width:4.17px;"/><ellipse cx="74.413" cy="539.592" rx="7.742" ry="7.746" style="fill:#ff7f30;stroke:#231f20;stroke-width:4.17px;"/><circle cx="74.413" cy="463.646" r="7.742" style="fill:#ff7f30;stroke:#231f20;stroke-width:4.17px;"/><path d="M968.775,515.442c-7.633,-0 -13.825,-6.192 -13.825,-13.825c0,-7.634 6.192,-13.829 13.825,-13.829c7.633,-0 13.825,6.195 13.825,13.829c0,7.633 -6.192,13.825 -13.825,13.825Zm-11.017,-44.055c-4.275,0 -7.745,-3.466 -7.745,-7.741c-0,-4.279 3.47,-7.75 7.745,-7.75c4.275,-0 7.742,3.471 7.742,7.75c0,4.275 -3.467,7.741 -7.742,7.741Zm0,75.946c-4.275,0 -7.745,-3.466 -7.745,-7.741c-0,-4.279 3.47,-7.746 7.745,-7.746c4.275,-0 7.742,3.467 7.742,7.746c0,4.275 -3.467,7.741 -7.742,7.741Z" style="fill:#ff7f30;fill-rule:nonzero;stroke:#231f20;stroke-width:4.17px;"/></svg>