<svg viewBox="0 0 248 241" xmlns="http://www.w3.org/2000/svg" xml:space="preserve" style="fill-rule:evenodd;clip-rule:evenodd;stroke-miterlimit:10"><path d="M127.178 14.429c0-1.831-1.487-3.318-3.318-3.318s-3.318 1.487-3.318 3.318c0 1.832 1.487 3.318 3.318 3.318s3.318-1.486 3.318-3.318ZM116.606 17.074c0-1.025-.833-1.858-1.859-1.858s-1.859.833-1.859 1.858c0 1.026.833 1.858 1.859 1.858s1.859-.832 1.859-1.858ZM134.832 17.074c0-1.025-.832-1.858-1.858-1.858-1.026 0-1.859.833-1.859 1.858 0 1.026.833 1.858 1.859 1.858s1.858-.832 1.858-1.858ZM120.542 226.346c0 1.831 1.487 3.318 3.318 3.318 1.832 0 3.318-1.487 3.318-3.318s-1.486-3.317-3.318-3.317c-1.831 0-3.318 1.486-3.318 3.317ZM131.116 223.701c0 1.026.832 1.858 1.858 1.858 1.026 0 1.859-.832 1.859-1.858 0-1.025-.833-1.858-1.859-1.858s-1.858.833-1.858 1.858ZM112.888 223.701c0 1.026.833 1.858 1.859 1.858s1.859-.832 1.859-1.858c0-1.025-.833-1.858-1.859-1.858s-1.859.833-1.859 1.858Z" style="fill:none;stroke:#231f20;stroke-width:1px"/><path style="fill:#fff;stroke:#231f20;stroke-width:1px" d="M28.772 25.3h190.177v190.176H28.772z"/><path style="fill:#fff;stroke:#231f20;stroke-width:1px" d="M34.441 30.969h178.838v178.838H34.441z"/><path style="fill:#fff;stroke:#231f20;stroke-width:1px" d="M37.275 33.804h173.169v173.168H37.275z"/><ellipse cx="15.214" cy="120.388" rx="3.317" ry="3.319" style="fill:none;stroke:#231f20;stroke-width:1px"/><ellipse cx="17.859" cy="129.502" rx="1.858" ry="1.859" style="fill:none;stroke:#231f20;stroke-width:1px"/><circle cx="17.859" cy="111.275" style="fill:none;stroke:#231f20;stroke-width:1px" r="1.858"/><path d="M232.506 123.706c-1.832 0-3.318-1.486-3.318-3.318s1.486-3.319 3.318-3.319 3.318 1.487 3.318 3.319c0 1.832-1.486 3.318-3.318 3.318ZM229.862 113.133c-1.026 0-1.859-.832-1.859-1.858 0-1.027.833-1.86 1.859-1.86s1.858.833 1.858 1.86c0 1.026-.832 1.858-1.858 1.858ZM229.862 131.36c-1.026 0-1.859-.832-1.859-1.858 0-1.027.833-1.859 1.859-1.859s1.858.832 1.858 1.859c0 1.026-.832 1.858-1.858 1.858Z" style="fill:none;fill-rule:nonzero;stroke:#231f20;stroke-width:1px"/><path d="M232.016 172.258c0-.043-.002-.085-.004-.128-.021-.466-.009-1.509.004-2.612.043-3.538.029-5.825-.152-7.362 1.527-2.327 2.353-5.092 2.345-7.918v-10.159c0-2.181.941-4.453 2.594-6.336 7.848-8.434 7.848-26.276.055-34.652-1.708-1.942-2.649-4.214-2.649-6.396V86.544c.008-2.831-.818-5.598-2.345-7.925.183-1.539.197-3.822.154-7.362-.015-1.104-.027-2.147-.006-2.607.002-.044.004-.089.004-.133 0-1.346.605-2.777 1.65-3.966 6.823-7.301 6.825-22.746.058-29.986-1.103-1.25-1.708-2.681-1.708-4.028 0-.044-.002-.087-.004-.13.278-1.17.414-2.37.402-3.56 0-8.346-6.789-15.136-15.136-15.136-2.773 0-5.493.769-7.838 2.178-3.474-3.176-8.89-4.999-14.903-4.999-6.08 0-11.555 1.859-14.959 5.043-1.253 1.102-2.684 1.708-4.03 1.708-.044 0-.089.001-.133.003-.193.01-.459.012-.776.012-.51 0-1.138-.008-1.829-.016-.874-.01-1.846-.022-2.81-.022-2.197 0-3.594.064-4.554.176-2.317-1.52-5.073-2.346-7.917-2.346h-10.16c-2.182 0-4.454-.941-6.336-2.594-3.94-3.666-10.171-5.778-17.121-5.825v-.004c-.017 0-.035.002-.051.002-.019 0-.035-.002-.052-.002v.004c-6.95.047-13.181 2.159-17.063 5.771-1.941 1.708-4.212 2.649-6.394 2.649l-10.194-.001c-2.816 0-5.568.826-7.884 2.346-.96-.111-2.361-.175-4.558-.175-.96 0-1.928.011-2.799.022-.691.008-1.32.015-1.831.015-.321 0-.588-.002-.785-.011a2.7761 2.7761 0 0 0-.129-.003c-1.345 0-2.776-.607-3.966-1.652-3.468-3.241-8.944-5.099-15.024-5.099-6.041 0-11.48 1.838-14.89 4.985-2.305-1.418-4.919-2.167-7.661-2.167-4.109 0-8.136 1.683-11.047 4.619-2.794 2.821-4.314 6.565-4.279 10.494-.01 1.194.125 2.389.4 3.558v.157c0 1.347-.607 2.778-1.652 3.967-6.822 7.301-6.822 22.745-.057 29.984 1.102 1.252 1.709 2.683 1.709 4.03 0 .043 0 .085.002.128.022.466.01 1.508-.004 2.612-.042 3.538-.027 5.825.154 7.361-1.529 2.327-2.354 5.093-2.345 7.918v10.159c0 2.182-.941 4.454-2.596 6.336-7.846 8.435-7.846 26.277-.052 34.653 1.707 1.942 2.648 4.214 2.648 6.395v10.152c-.009 2.831.816 5.597 2.345 7.924-.183 1.539-.196 3.823-.154 7.363.014 1.104.028 2.147.006 2.607-.004.044-.004.089-.004.133 0 1.346-.607 2.776-1.652 3.966-6.822 7.301-6.822 22.746-.057 29.986 1.102 1.25 1.709 2.681 1.709 4.027 0 .044 0 .087.002.13a14.947 14.947 0 0 0-.402 3.561c0 8.347 6.791 15.137 15.138 15.137 2.772 0 5.493-.77 7.838-2.179 3.473 3.176 8.889 4.999 14.903 4.999 6.079 0 11.555-1.858 14.959-5.043 1.253-1.102 2.684-1.708 4.029-1.708.044 0 .089-.001.133-.003.193-.01.459-.012.776-.012.51 0 1.138.008 1.83.016.874.011 1.845.022 2.809.022 2.197 0 3.595-.064 4.555-.175 2.316 1.519 5.072 2.345 7.917 2.345h10.16c2.182 0 4.453.941 6.336 2.594 3.939 3.666 10.171 5.777 17.121 5.824v.005c.017 0 .033-.002.052-.002.016 0 .034.002.051.002v-.005c6.95-.047 13.18-2.158 17.062-5.77 1.941-1.708 4.213-2.649 6.395-2.649h10.194c2.815 0 5.567-.825 7.884-2.345.96.111 2.36.175 4.557.175.96 0 1.928-.011 2.799-.022.692-.008 1.32-.016 1.831-.016.321 0 .588.003.785.012.043.002.086.003.129.003 1.346 0 2.777.606 3.966 1.651 3.469 3.242 8.944 5.1 15.024 5.1 6.041 0 11.482-1.838 14.89-4.985 2.306 1.419 4.918 2.168 7.662 2.168 4.11 0 8.135-1.684 11.045-4.621 2.795-2.82 4.315-6.564 4.279-10.494.01-1.193-.123-2.388-.398-3.557v-.158c0-1.346.605-2.777 1.65-3.966 6.825-7.301 6.825-22.745.059-29.985-1.104-1.252-1.709-2.682-1.709-4.029Z" style="fill:none;fill-rule:nonzero;stroke:#231f20;stroke-width:1px"/></svg>