<?xml version="1.0" encoding="UTF-8"?> <svg xmlns="http://www.w3.org/2000/svg" viewBox="0 0 80 52.86"><path d="M37.89 11.19c2.42 0 4.05 1.85 4.28 4.01h-8.59c.2-2.09 1.76-4.01 4.31-4.01m0-2.83c-5.01 0-8.06 3.91-8.06 8.46 0 5.15 3.59 8.79 8.46 8.79 4.01 0 6.31-2.33 7.37-4.78h-3.82c-.83 1.14-1.93 1.82-3.55 1.82-2.55 0-4.74-2.19-4.74-4.72h12.28l.07-1.11c-.01-4.11-2.53-8.43-8.01-8.46M12.88 25.03h3.72v-8.59c0-3.13 1.59-4.75 3.92-4.75 2.12 0 3.42 1.48 3.42 4.24v9.09h3.71v-9.29c0-5.22-2.85-7.38-6.14-7.38-1.76 0-3.55.74-4.81 2.56h-.1V.78h-3.72v24.25zM.5 12.07h1.99v7.45c0 3.3 1.06 5.73 5.01 5.73.93 0 1.99-.14 2.82-.37V21.8c-.56.14-1.29.27-1.92.27-1.53 0-2.19-.6-2.19-2.79v-7.21h3.95V8.9H6.21V3.75H2.49V8.9H.5v3.17zm62.42 19.2h1.99v7.45c0 3.3 1.07 5.73 5.01 5.73.93 0 1.99-.14 2.82-.37v-3.07c-.56.14-1.29.27-1.93.27-1.52 0-2.19-.61-2.19-2.8v-7.21h3.95v-3.16h-3.95v-5.16H64.9v5.16h-1.99v3.16zM46.6 44.25h3.72v-8.56c0-3.13 1.59-4.78 3.91-4.78 2.12 0 3.42 1.48 3.42 4.25v9.09h3.72v-9.3c0-5.19-2.89-7.38-6.17-7.38-1.76 0-3.59.74-4.85 2.56h-.06v-2.02H46.6v16.14zm-6.11 0h3.72V28.11h-3.72v16.14zm-15.32-8.09c0-3 1.86-5.26 4.72-5.26 2.95 0 4.74 2.39 4.74 5.26 0 3-1.93 5.29-4.74 5.29-2.57 0-4.72-2.19-4.72-5.29m-3.78 0c0 4.89 3.65 8.66 8.5 8.66 4.94 0 8.49-3.91 8.49-8.66 0-4.89-3.52-8.59-8.49-8.59-4.82 0-8.5 3.61-8.5 8.59m-6.01.03c0 2.66-1.59 5.36-4.78 5.36-2.55 0-4.71-2.16-4.71-5.29 0-3.23 2.09-5.36 4.68-5.36 3.25 0 4.81 2.6 4.81 5.29M2.41 52.16h3.65v-9.87h.1c1.07 1.35 2.79 2.53 5.25 2.53 4.28 0 7.8-3.54 7.8-8.59 0-5.19-3.52-8.62-7.6-8.62-2.89 0-4.45 1.35-5.47 2.56h-.1v-2.05H2.41v24.04z" fill="#f9f2ec"></path><path d="M77.24 44.69c1.21 0 2.19-1 2.19-2.23s-.98-2.22-2.19-2.22-2.19 1-2.19 2.22c-.01 1.23.97 2.23 2.19 2.23" fill="#f5afb9"></path></svg> 